<svg xmlns="http://www.w3.org/2000/svg" width="26.304" height="26.183" viewBox="0 0 26.304 26.183">
  <path id="Path_23446" data-name="Path 23446" d="M25.626,11.665a2.766,2.766,0,0,0-1.79-.89v-.239c0-.276,0-.552,0-.828,0-.615.007-1.251-.01-1.878a2.516,2.516,0,0,0-2.319-2.6.574.574,0,0,1-.074-.015.689.689,0,0,1,0-.08c.013-.643.009-1.295,0-1.925V2.979c-.006-1-.385-1.376-1.4-1.379q-1.389,0-2.778,0H15.848c0-.02,0-.039,0-.058C15.8.274,15.524,0,14.263,0H12.556Q7.815,0,3.074,0C2.027,0,1.655.37,1.653,1.41q0,.587,0,1.174c0,.858,0,1.746-.013,2.617a.412.412,0,0,1-.08.2A2.714,2.714,0,0,0,0,8c.005,3.412,0,6.88,0,10.235q0,2.55,0,5.1a2.6,2.6,0,0,0,2.814,2.847c2.973,0,5.981,0,9.068,0,2.952,0,5.977,0,9.115,0a2.613,2.613,0,0,0,2.833-2.826c.005-.766,0-1.544,0-2.3q0-.726,0-1.451c0-.076,0-.152.009-.231a2.6,2.6,0,0,0,2.436-2.829c0-.27,0-.544-.009-.809-.01-.549-.02-1.117.019-1.663a3.229,3.229,0,0,0-.667-2.407M13.618,2.211V5.155H3.859q0-.618,0-1.236c0-.558,0-1.115,0-1.672,0-.018,0-.034,0-.047,2.3.007,4.632.008,6.891.01l2.874,0m2.271,1.638h3.322V5.157H15.888Zm5.7,19.792a.876.876,0,0,1-.386.339.946.946,0,0,1-.243,0c-.06,0-.119-.006-.176-.006H3.3c-.429,0-.886-.019-1.013-.163A1.366,1.366,0,0,1,2.216,23h19.4s0,.005,0,.008a2.054,2.054,0,0,1-.024.629m.042-13.448v.587c-.079,0-.153.008-.225.008H19.834c-.842,0-1.713,0-2.57,0a2.62,2.62,0,0,0-2.822,2.835c-.006.908-.011,1.963,0,3a2.588,2.588,0,0,0,2.748,2.753c1.085.01,2.15.008,3.276.005l1.134,0V20.75H2.2V17.288q0-4.581,0-9.161c0-.667.063-.728.75-.728q8.963,0,17.925,0c.724,0,.753.029.754.775,0,.668,0,1.335,0,2.02m-1.245,6.99h-.812c-.747,0-1.519,0-2.278,0-.577,0-.65-.073-.654-.625-.006-.955-.006-1.943,0-2.938,0-.542.082-.624.6-.626,2.048-.006,4.145-.006,6.232,0,.507,0,.6.1.6.622,0,.879,0,1.922,0,2.99,0,.462-.106.57-.554.574-.734.007-1.482.006-2.205,0h-.933" transform="translate(-0.001 0)" fill="#51ab1d"/>
</svg>
