<svg id="Group_9749" data-name="Group 9749" xmlns="http://www.w3.org/2000/svg" xmlns:xlink="http://www.w3.org/1999/xlink" width="24" height="23.929" viewBox="0 0 24 23.929">
  <defs>
    <clipPath id="clip-path">
      <rect id="Rectangle_3986" data-name="Rectangle 3986" width="24" height="23.929" fill="#51ab1d"/>
    </clipPath>
  </defs>
  <g id="Group_9748" data-name="Group 9748" clip-path="url(#clip-path)">
    <path id="Path_23431" data-name="Path 23431" d="M12.037,6.494H1.027C.2,6.493,0,6.292,0,5.478q0-.375,0-.75c0-.758.092-.887.79-1.119C4.356,2.427,7.92,1.236,11.493.075a1.775,1.775,0,0,1,1.03,0C16.081,1.236,19.63,2.421,23.181,3.6c.729.242.816.366.817,1.147,0,.312.006.625,0,.937a.717.717,0,0,1-.809.807c-1.046.008-2.093,0-3.139,0H12.037M9.187,4.372A.691.691,0,1,0,8.5,3.657a.681.681,0,0,0,.691.715m2.808,0a.691.691,0,1,0-.687-.719.682.682,0,0,0,.687.719m2.8,0a.691.691,0,1,0-.672-.733.683.683,0,0,0,.672.733" transform="translate(0 0)" fill="#51ab1d"/>
    <path id="Path_23432" data-name="Path 23432" d="M12,225.255H22.965c.844,0,1.034.195,1.035,1.055,0,.312.005.625,0,.937a.725.725,0,0,1-.8.821c-.094,0-.187,0-.281,0H1.083c-.907,0-1.081-.178-1.081-1.1q0-.281,0-.562c0-.99.157-1.15,1.127-1.15H12" transform="translate(-0.001 -204.141)" fill="#51ab1d"/>
    <rect id="Rectangle_3983" data-name="Rectangle 3983" width="2.757" height="6.129" transform="translate(3.118 10.747)" fill="#51ab1d"/>
    <rect id="Rectangle_3984" data-name="Rectangle 3984" width="2.757" height="6.129" transform="translate(10.616 10.747)" fill="#51ab1d"/>
    <rect id="Rectangle_3985" data-name="Rectangle 3985" width="2.757" height="6.129" transform="translate(18.115 10.747)" fill="#51ab1d"/>
    <path id="Path_23433" data-name="Path 23433" d="M27.661,84.5c0,.251.018.482,0,.709a.668.668,0,0,1-.7.669q-1.635.022-3.271,0a.682.682,0,0,1-.706-.714c-.013-.213,0-.428,0-.664Z" transform="translate(-20.819 -76.582)" fill="#51ab1d"/>
    <path id="Path_23434" data-name="Path 23434" d="M107.664,84.589c0,.228.008.429,0,.629a.692.692,0,0,1-.728.742q-1.612.021-3.224,0a.692.692,0,0,1-.732-.737c-.01-.2,0-.4,0-.634Z" transform="translate(-93.321 -76.66)" fill="#51ab1d"/>
    <path id="Path_23435" data-name="Path 23435" d="M187.665,84.573c0,.233.009.435,0,.635a.692.692,0,0,1-.732.738q-1.612.02-3.224,0a.691.691,0,0,1-.728-.742c-.01-.2,0-.4,0-.631Z" transform="translate(-165.824 -76.646)" fill="#51ab1d"/>
    <path id="Path_23436" data-name="Path 23436" d="M27.661,196.6H22.974c0-.236-.012-.463,0-.689a.683.683,0,0,1,.724-.7q1.612-.019,3.224,0a.692.692,0,0,1,.734.736c.01.2,0,.4,0,.65" transform="translate(-20.817 -176.91)" fill="#51ab1d"/>
    <path id="Path_23437" data-name="Path 23437" d="M107.662,196.595h-4.686c0-.238-.011-.453,0-.666a.682.682,0,0,1,.709-.711q1.635-.021,3.271,0a.682.682,0,0,1,.7.719c.012.2,0,.4,0,.658" transform="translate(-93.32 -176.909)" fill="#51ab1d"/>
    <path id="Path_23438" data-name="Path 23438" d="M187.647,196.6h-4.685c0-.25-.018-.481,0-.708a.668.668,0,0,1,.7-.67q1.635-.022,3.271,0a.682.682,0,0,1,.707.713c.013.213,0,.428,0,.664" transform="translate(-165.806 -176.911)" fill="#51ab1d"/>
  </g>
</svg>
