<svg xmlns="http://www.w3.org/2000/svg" width="24.096" height="15.135" viewBox="0 0 24.096 15.135">
  <g id="Group_9746" data-name="Group 9746" transform="translate(12286.016 10952)">
    <path id="Path_23422" data-name="Path 23422" d="M12.072,15.134q-4.87,0-9.74,0A2.041,2.041,0,0,1,0,12.8Q0,7.509,0,2.215A2,2,0,0,1,2.215,0q9.834,0,19.668,0A2,2,0,0,1,24.1,2.216q0,5.364,0,10.728a2,2,0,0,1-2.19,2.189q-4.917.008-9.834,0m-.028-1.415q4.891,0,9.783,0c.708,0,.855-.15.855-.856q0-5.291,0-10.582c0-.711-.147-.864-.847-.864q-9.783,0-19.565,0c-.709,0-.855.149-.855.856q0,5.244,0,10.488c0,.841.114.958.941.959h9.689" transform="translate(-12286.016 -10952)" fill="#72bb48"/>
    <path id="Path_23423" data-name="Path 23423" d="M38.7,37.028c.11.1.226.2.338.308A3.164,3.164,0,0,1,40.1,39.618c.015.533.018,1.067,0,1.6a.664.664,0,0,1-.731.736c-1.709.012-3.419.008-5.128,0a.63.63,0,0,1-.7-.617,16,16,0,0,1,.131-2.476,2.989,2.989,0,0,1,1.287-1.839,2.474,2.474,0,0,1-.492-2.13,2.321,2.321,0,0,1,.917-1.382,2.434,2.434,0,0,1,3.041.136c.96.849,1.064,2.042.28,3.38m-.043,3.486a2.142,2.142,0,0,0-.846-2.34,1.767,1.767,0,0,0-2.034.028,2.182,2.182,0,0,0-.821,2.312Zm-2.839-5.04a1,1,0,0,0,1.024.99,1.009,1.009,0,0,0,.976-1,.989.989,0,0,0-1.006-1.006.977.977,0,0,0-.994,1.013" transform="translate(-12316.396 -10981.934)" fill="#72bb48"/>
    <path id="Path_23424" data-name="Path 23424" d="M136.52,72.861c1.207,0,2.414-.011,3.621,0,.633.008,1.009.579.676,1.038a.947.947,0,0,1-.656.354c-2.429.025-4.859.021-7.288.011a.714.714,0,0,1-.768-.715.721.721,0,0,1,.795-.689c1.207-.011,2.414,0,3.621,0" transform="translate(-12405.688 -11017.999)" fill="#72bb48"/>
    <path id="Path_23425" data-name="Path 23425" d="M136.506,103.036c1.16,0,2.32,0,3.48,0,.582,0,.921.272.912.711s-.339.7-.886.7q-3.527.007-7.054,0c-.621,0-1.006-.4-.862-.882a.75.75,0,0,1,.835-.533c1.191.008,2.382,0,3.574,0" transform="translate(-12405.653 -11045.336)" fill="#72bb48"/>
    <path id="Path_23426" data-name="Path 23426" d="M134.677,44.094c-.6,0-1.19.009-1.785,0a.706.706,0,1,1-.01-1.4q1.832-.02,3.664,0a.688.688,0,0,1,.75.723c-.01.421-.285.671-.787.681-.611.011-1.221,0-1.832,0" transform="translate(-12405.689 -10990.658)" fill="#72bb48"/>
  </g>
</svg>
