<svg xmlns="http://www.w3.org/2000/svg" width="26.674" height="30.368" viewBox="0 0 26.674 30.368"><g transform="translate(-15847.5 6395)"><path d="M21.018,131.944H2.656A2.656,2.656,0,0,1,0,129.288V118.836a2.656,2.656,0,0,1,2.656-2.656H21.018a2.656,2.656,0,0,1,2.656,2.656v10.452a2.656,2.656,0,0,1-2.656,2.656" transform="translate(15849 -6498.076)" fill="none" stroke="#72bb48" stroke-width="3"/><path d="M32.695,0A9.185,9.185,0,0,1,41.88,9.185V13.1H38.5V9.185a5.8,5.8,0,0,0-11.6,0V13.1H23.508V9.185A9.186,9.186,0,0,1,32.695,0" transform="translate(15828.144 -6395)" fill="#72bb48"/></g></svg>