<svg xmlns="http://www.w3.org/2000/svg" width="17.909" height="18.425" viewBox="0 0 17.909 18.425">
  <g id="Group_9607" data-name="Group 9607" transform="translate(-62.189 -406)">
    <path id="Path_23327" data-name="Path 23327" d="M16.511,2.187h-.484v1.5a2.119,2.119,0,0,1-4.238,0V2.178L6.1,2.168V3.684a2.119,2.119,0,0,1-4.238,0V2.16H1.4A1.4,1.4,0,0,0,0,3.559V17.025a1.4,1.4,0,0,0,1.4,1.4H16.509a1.4,1.4,0,0,0,1.4-1.4V3.587a1.4,1.4,0,0,0-1.4-1.4m-.74,13.6c0,.623-.244.87-.865.87q-5.966.005-11.933,0c-.619,0-.873-.257-.873-.868q0-3.2,0-6.4c0-.59.263-.849.853-.85q3,0,6,0h5.93c.644,0,.885.237.886.884q0,3.18,0,6.36m-10.6-14.6V3.684a1.19,1.19,0,0,1-2.38,0V1.191a1.19,1.19,0,1,1,2.38,0m9.929,0V3.684a1.19,1.19,0,0,1-1.191,1.19,1.211,1.211,0,0,1-.24-.024c-.039-.008-.076-.018-.114-.029a1.161,1.161,0,0,1-.312-.149c-.031-.021-.062-.044-.091-.069s-.057-.049-.084-.076l-.039-.041c-.026-.028-.05-.058-.073-.088s-.044-.063-.064-.1c-.01-.016-.019-.033-.029-.05-.018-.034-.035-.069-.05-.1a1.188,1.188,0,0,1-.094-.463V1.191a1.19,1.19,0,1,1,2.38,0" transform="translate(62.189 406)" fill="#6e6e6e"/>
    <path id="Path_23328" data-name="Path 23328" d="M110.422,139.22c-.226,0-.452,0-.678,0a.412.412,0,0,1-.458-.436c-.012-.464-.01-.928,0-1.392a.422.422,0,0,1,.46-.441c.452-.012.9-.013,1.357,0a.444.444,0,0,1,.464.514c0,.417.006.833,0,1.25-.007.356-.146.494-.5.507-.214.008-.428,0-.643,0h0" transform="translate(-39.279 278.846)" fill="#6e6e6e"/>
    <path id="Path_23329" data-name="Path 23329" d="M110.437,189.925c-.214,0-.429,0-.643,0a.44.44,0,0,1-.5-.48q-.008-.661,0-1.322a.443.443,0,0,1,.5-.48c.429,0,.858-.009,1.286,0,.344.009.489.162.5.516q.012.625,0,1.251c-.008.366-.156.5-.534.513-.2.005-.405,0-.607,0" transform="translate(-39.294 231.77)" fill="#6e6e6e"/>
    <path id="Path_23330" data-name="Path 23330" d="M59.7,189.921c-.2,0-.4,0-.607,0-.414-.007-.553-.141-.561-.562-.008-.393-.009-.786,0-1.178s.156-.535.548-.541.809-.008,1.214,0c.372.008.508.149.514.528q.01.607,0,1.214c-.006.4-.139.53-.537.539-.19,0-.381,0-.571,0" transform="translate(7.848 231.775)" fill="#6e6e6e"/>
    <path id="Path_23331" data-name="Path 23331" d="M161.277,189.941c-.226,0-.452,0-.678,0a.422.422,0,0,1-.47-.462q0-.678,0-1.357a.423.423,0,0,1,.473-.46c.44-.007.881-.006,1.321,0a.436.436,0,0,1,.477.465c.013.452.013.9,0,1.357a.433.433,0,0,1-.48.459c-.214,0-.428,0-.643,0" transform="translate(-86.495 231.754)" fill="#6e6e6e"/>
    <path id="Path_23332" data-name="Path 23332" d="M59.682,139.227c-.214,0-.428,0-.642,0a.424.424,0,0,1-.484-.45c-.014-.452-.011-.9,0-1.356a.436.436,0,0,1,.474-.468c.44-.009.88-.01,1.32,0a.435.435,0,0,1,.481.491c0,.44,0,.88,0,1.32a.416.416,0,0,1-.466.461c-.226,0-.452,0-.678,0" transform="translate(7.828 278.839)" fill="#6e6e6e"/>
    <path id="Path_23333" data-name="Path 23333" d="M161.256,139.222c-.226,0-.452,0-.678,0a.405.405,0,0,1-.447-.442c-.006-.452,0-.9,0-1.356a.425.425,0,0,1,.463-.472c.44-.013.88-.009,1.32,0a.449.449,0,0,1,.494.488c.008.428.007.857,0,1.285a.446.446,0,0,1-.507.5c-.214,0-.428,0-.642,0h0" transform="translate(-86.495 278.844)" fill="#6e6e6e"/>
  </g>
</svg>
