<svg xmlns="http://www.w3.org/2000/svg" xmlns:xlink="http://www.w3.org/1999/xlink" width="24.081" height="25.773" viewBox="0 0 24.081 25.773">
  <defs>
    <clipPath id="clip-path">
      <rect id="Rectangle_3889" data-name="Rectangle 3889" width="24.081" height="25.773" fill="#72bb48"/>
    </clipPath>
  </defs>
  <g id="Group_9467" data-name="Group 9467" transform="translate(0 0)">
    <g id="Group_9466" data-name="Group 9466" transform="translate(0 0)" clip-path="url(#clip-path)">
      <path id="Path_23305" data-name="Path 23305" d="M16.456,25.774h-.039a11.691,11.691,0,0,1-6.357-2.234,26.613,26.613,0,0,1-8.951-10.57A10.176,10.176,0,0,1,.447,5.413,7.9,7.9,0,0,1,2.634,1.977C3.152,1.5,3.7,1.036,4.263.606A2.382,2.382,0,0,1,7.488.651a11.005,11.005,0,0,1,3.184,5.035A3.079,3.079,0,0,1,9.648,8.973c-.382.337-.84.733-1.336,1.11-.706.534-.687.806-.475,1.3A12.863,12.863,0,0,0,13.1,17.426c.464.28.715.33,1.349-.3.4-.394.812-.766,1.2-1.108a3.246,3.246,0,0,1,3.83-.461A12.534,12.534,0,0,1,23.437,18.9a2.557,2.557,0,0,1-.309,3.687,9.7,9.7,0,0,1-4.551,2.842c-.464.1-.925.171-1.371.238-.2.029-.392.059-.587.091a.992.992,0,0,1-.163.014M5.89,2.006a.734.734,0,0,0-.412.192c-.513.391-1.01.81-1.48,1.247A5.917,5.917,0,0,0,2.356,6.019a8.131,8.131,0,0,0,.569,6.1A24.629,24.629,0,0,0,11.216,21.9,9.6,9.6,0,0,0,16.4,23.767c.17-.027.341-.053.512-.078.432-.065.84-.126,1.236-.214a7.838,7.838,0,0,0,3.6-2.339c.44-.418.414-.615.114-1a10.532,10.532,0,0,0-3.325-2.817,1.244,1.244,0,0,0-1.568.2c-.366.32-.754.666-1.108,1.019a2.865,2.865,0,0,1-3.8.6A14.83,14.83,0,0,1,6,12.173,2.844,2.844,0,0,1,7.1,8.487c.444-.336.865-.7,1.219-1.014a1.067,1.067,0,0,0,.434-1.2,9.034,9.034,0,0,0-2.61-4.131.375.375,0,0,0-.255-.131" transform="translate(0 0)" fill="#72bb48"/>
    </g>
  </g>
</svg>
