<svg xmlns="http://www.w3.org/2000/svg" width="24.038" height="24.038" viewBox="0 0 24.038 24.038">
  <g id="Group_9747" data-name="Group 9747" transform="translate(-1784 -331.963)">
    <path id="Path_23427" data-name="Path 23427" d="M0,5.636Q0,3.408,0,1.181C0,.34.33,0,1.153,0q4.48,0,8.959,0c.827,0,1.155.335,1.155,1.176q0,4.456,0,8.911c0,.861-.325,1.179-1.2,1.179q-4.432,0-8.865,0c-.89,0-1.2-.319-1.2-1.223Q0,7.84,0,5.636M1.9,9.355H9.35V1.907H1.9Z" transform="translate(1784 331.962)" fill="#51ab1d"/>
    <path id="Path_23428" data-name="Path 23428" d="M32.556,26.924c0,1.5,0,3,0,4.505,0,.776-.344,1.125-1.111,1.126-3,0-6.007,0-9.01,0a1.011,1.011,0,0,1-1.065-.6.973.973,0,0,1,.319-1.137L30.813,21.7a.984.984,0,0,1,1.133-.335.994.994,0,0,1,.612,1.054c-.007,1.5,0,3,0,4.505m-1.906-2.137L24.8,30.638h5.85Z" transform="translate(1775.479 323.441)" fill="#51ab1d"/>
    <path id="Path_23429" data-name="Path 23429" d="M21.289,5.636a5.632,5.632,0,1,1,5.644,5.632,5.649,5.649,0,0,1-5.644-5.632m5.669-3.753a3.753,3.753,0,1,0,3.716,3.8,3.764,3.764,0,0,0-3.716-3.8" transform="translate(1775.48 331.961)" fill="#51ab1d"/>
    <path id="Path_23430" data-name="Path 23430" d="M4.343,26.96C3.023,25.64,1.785,24.4.549,23.165a3.248,3.248,0,0,1-.376-.417A.9.9,0,0,1,.3,21.554a.9.9,0,0,1,1.161-.1,3.088,3.088,0,0,1,.419.374c1.238,1.237,2.474,2.477,3.746,3.751.142-.134.266-.245.383-.362q1.677-1.674,3.352-3.351c.089-.089.175-.18.267-.264A.939.939,0,0,1,11,21.582a.921.921,0,0,1-.049,1.344c-.974,1-1.963,1.975-2.951,2.956-.332.329-.681.641-1.059.994.164.175.275.3.392.416l3.352,3.351c.077.077.157.152.232.233a.948.948,0,0,1,.053,1.413A.932.932,0,0,1,9.6,32.207q-1.619-1.6-3.22-3.217c-.23-.232-.437-.488-.686-.768-.184.173-.308.285-.425.4Q3.588,30.3,1.913,31.975c-.077.077-.152.157-.233.232a.948.948,0,0,1-1.414.053.934.934,0,0,1,.081-1.378Q1.88,29.328,3.433,27.8c.277-.275.574-.528.911-.836" transform="translate(1784 323.443)" fill="#51ab1d"/>
  </g>
</svg>
