<svg xmlns="http://www.w3.org/2000/svg" width="46" height="46" viewBox="0 0 46 46">
  <g id="Group_9978" data-name="Group 9978" transform="translate(-480 -260)">
    <rect id="Rectangle_3867" data-name="Rectangle 3867" width="46" height="46" rx="5" transform="translate(480 260)" fill="#fff"/>
    <g id="Group_9935" data-name="Group 9935" transform="translate(15226.169 12612.616)">
      <path id="Path_57997" data-name="Path 57997" d="M18.534,20.42a.642.642,0,0,1,.042-.843,9.478,9.478,0,0,0,1.939-5.142,9.365,9.365,0,0,0-.52-3.835,5.3,5.3,0,0,1-1.812.393,7.585,7.585,0,0,1,.52,2.725,7.851,7.851,0,0,1-7.8,7.881h-.014a7.839,7.839,0,1,1-.056-15.678,2.707,2.707,0,0,1,.337.014.052.052,0,0,1-.014-.042,6.351,6.351,0,0,1-.2-1.573,1.063,1.063,0,0,1,.014-.211,9.645,9.645,0,0,0-7.7,15.565.584.584,0,0,1,.028.787C2.294,22.176,1.3,23.9.285,25.632c-.253.421-.45.843-.084,1.306s.829.351,1.306.211c.815-.253,1.644-.492,2.5-.745.351,1.026.7,2.023,1.04,3.006a.918.918,0,0,0,1.714.183C7.436,28.4,8.124,27.219,8.8,26.025a.888.888,0,0,0-.028-1.082.91.91,0,0,0-.281-.239.884.884,0,0,0-1.208.365c-.379.618-.73,1.25-1.138,1.953-.253-.7-.45-1.306-.674-1.9a.457.457,0,0,0-.056-.2A.906.906,0,0,0,4.2,24.466c-.407.112-.829.239-1.377.393l2.037-3.484a9.83,9.83,0,0,0,12.109-.056l2.079,3.54c-.549-.169-.969-.3-1.391-.407a.7.7,0,0,0-.183-.056.926.926,0,0,0-1.083.716c-.209.6-.406,1.194-.659,1.9-.407-.7-.759-1.335-1.138-1.939-.155-.225-.407-.506-.632-.534a1.373,1.373,0,0,0-.9.281A.817.817,0,0,0,13,25.9c.674,1.152,1.335,2.3,1.993,3.47.24.421.507.787,1.054.716.521-.056.718-.435.858-.871.309-.927.632-1.854.955-2.81.9.253,1.77.506,2.613.773a.99.99,0,0,0,1.193-.253.971.971,0,0,0-.027-1.222c-1.04-1.756-2.051-3.526-3.1-5.282" transform="translate(-14735 -12343.336)" fill="#8856ec"/>
      <path id="Path_57998" data-name="Path 57998" d="M8.563,7.224c-.014.028-.028.042-.042.07a21.32,21.32,0,0,0-.983,2.163.863.863,0,0,1-.8.562c-.716.084-1.433.225-2.149.337a.959.959,0,0,0-.787.407.935.935,0,0,0,.253,1.306c.562.506,1.11,1.04,1.686,1.531a.711.711,0,0,1,.239.759c-.126.73-.239,1.461-.351,2.206a.907.907,0,0,0,.3,1.011.993.993,0,0,0,1.138,0c.7-.379,1.391-.773,2.107-1.11a.9.9,0,0,1,.688-.014c.73.309,1.433.688,2.135,1.04a.94.94,0,0,0,1.4-1.1c-.155-.73-.267-1.461-.435-2.191a.682.682,0,0,1,.239-.745c.562-.52,1.082-1.068,1.644-1.6a.942.942,0,0,0,.3-1.054.9.9,0,0,0-.857-.6c-.787-.084-1.573-.169-2.36-.309a1,1,0,0,1-.6-.407c-.407-.674-.73-1.531-1.152-2.206a.307.307,0,0,0-.042-.07,1.3,1.3,0,0,0-.2-.2.983.983,0,0,0-1.363.211m.955,2.838a2.3,2.3,0,0,0,2.824,1.616c-.506.6-1.082,1.011-1.25,1.545a5.694,5.694,0,0,0,.155,1.953,1.325,1.325,0,0,0-.14-.14,2.34,2.34,0,0,0-3.315.183l-.07-.14a9.58,9.58,0,0,1,.14-1.11A1.16,1.16,0,0,0,7.4,12.675c-.281-.225-.548-.492-.829-.745A5.634,5.634,0,0,0,8.422,11.4a5.864,5.864,0,0,0,1.04-1.672,2.813,2.813,0,0,0,.056.337" transform="translate(-14733.528 -12342.235)" fill="#8856ec"/>
      <path id="Path_57999" data-name="Path 57999" d="M14.316,0A6.037,6.037,0,0,0,8.331,5.465a2.707,2.707,0,0,0-.014.337.8.8,0,0,0-.014.183,5.743,5.743,0,0,0,.169,1.4c.028.1.056.2.084.281A5.993,5.993,0,0,0,14.316,12a1.063,1.063,0,0,0,.211-.014.23.23,0,0,0,.1,0l.464-.042a6.467,6.467,0,0,0,1.292-.337l.126-.042A5.989,5.989,0,0,0,14.316,0m1.419,9.96a4.16,4.16,0,0,1-1.419.267,3.6,3.6,0,0,1-.548-.042,4.244,4.244,0,0,1-3.343-2.5,4.058,4.058,0,0,1-.365-1.7,1.445,1.445,0,0,1,.014-.239A4.238,4.238,0,1,1,15.734,9.96" transform="translate(-14731.639 -12345)" fill="#8856ec"/>
      <path id="Path_58000" data-name="Path 58000" d="M13.236,4.608c-.548-.07-1.054-.14-1.054-.576s.492-.6,1.026-.6a1.355,1.355,0,0,1,1.1.492l.688-.323a1.627,1.627,0,0,0-1.335-.885V2.15h-.815v.562c-.759.1-1.5.478-1.5,1.321,0,1.068.9,1.236,1.826,1.335.6.07,1.138.225,1.138.646,0,.506-.534.7-1.124.7A1.379,1.379,0,0,1,11.9,6.041l-.225.1-.534.225a1.925,1.925,0,0,0,1.7,1.11v.6h.815V7.432a1.473,1.473,0,0,0,1.517-1.419c0-1.124-1-1.292-1.939-1.4" transform="translate(-14730.489 -12344.13)" fill="#8856ec"/>
    </g>
  </g>
</svg>
