<svg xmlns="http://www.w3.org/2000/svg" width="46" height="46" viewBox="0 0 46 46">
  <g id="Group_9976" data-name="Group 9976" transform="translate(-480 -260)">
    <rect id="Rectangle_3867" data-name="Rectangle 3867" width="46" height="46" rx="5" transform="translate(480 260)" fill="#fff"/>
    <g id="Group_9936" data-name="Group 9936" transform="translate(-9221.512 9378)">
      <path id="Path_23342" data-name="Path 23342" d="M18.308,19.965,16.317,16.55c-3.868,2.7-7.735,2.711-11.64.054L2.718,19.963c.522-.153.921-.276,1.324-.386a.88.88,0,0,1,1.217.633c.208.573.4,1.151.641,1.828.4-.682.73-1.287,1.093-1.875a.859.859,0,0,1,1.433-.129.874.874,0,0,1,.032,1.048q-.983,1.712-1.964,3.426a.857.857,0,0,1-.882.485.877.877,0,0,1-.764-.659c-.324-.95-.655-1.9-1-2.887-.828.245-1.619.475-2.407.715-.454.139-.9.232-1.248-.206S.028,21.115.273,20.7c.974-1.652,1.931-3.314,2.909-4.963a.565.565,0,0,0-.033-.759A9.273,9.273,0,1,1,19.716,9.942a9.044,9.044,0,0,1-1.867,4.941.6.6,0,0,0-.033.808c1.007,1.689,1.983,3.4,2.981,5.09a.937.937,0,0,1,.032,1.171.948.948,0,0,1-1.151.235c-.818-.255-1.643-.486-2.508-.74-.317.923-.628,1.809-.925,2.7-.141.422-.328.792-.828.847-.527.059-.781-.285-1.009-.691-.629-1.119-1.275-2.228-1.913-3.343a.777.777,0,0,1,.066-1.031,1.252,1.252,0,0,1,.864-.268c.218.024.458.287.6.5.376.58.7,1.191,1.1,1.875.236-.675.433-1.252.64-1.824a.88.88,0,0,1,1.214-.638c.4.11.8.234,1.33.389m-7.834-3.14A7.532,7.532,0,1,0,2.91,9.316a7.552,7.552,0,0,0,7.564,7.508" transform="translate(9714 -9107)" fill="#51ab1d"/>
      <path id="Path_23343" data-name="Path 23343" d="M55.022,38.114a.94.94,0,0,1,1.5-.021.825.825,0,0,1,.047.068c.4.649.714,1.469,1.1,2.123a.948.948,0,0,0,.582.394c.751.133,1.511.215,2.27.3a.869.869,0,0,1,.819.583.906.906,0,0,1-.29,1.011c-.529.5-1.036,1.033-1.572,1.531a.673.673,0,0,0-.237.725c.161.7.281,1.4.424,2.1a.926.926,0,0,1-.3,1.011.907.907,0,0,1-1.05.044c-.681-.342-1.359-.7-2.057-1a.906.906,0,0,0-.661.012c-.688.328-1.354.7-2.024,1.068a.975.975,0,0,1-1.1,0,.889.889,0,0,1-.282-.971c.107-.706.215-1.413.345-2.115a.672.672,0,0,0-.234-.725c-.556-.474-1.076-.991-1.623-1.476a.907.907,0,0,1,.507-1.655c.69-.106,1.378-.232,2.071-.313a.829.829,0,0,0,.766-.541,20.671,20.671,0,0,1,.953-2.084q.019-.033.041-.064m3.633,4.274a2.207,2.207,0,0,1-2.772-1.873,5.439,5.439,0,0,1-.992,1.61,5.375,5.375,0,0,1-1.783.513c.272.249.521.5.793.719a1.127,1.127,0,0,1,.449,1.24,9.6,9.6,0,0,0-.142,1.063l.078.137a2.252,2.252,0,0,1,3.319-.045,5.4,5.4,0,0,1-.146-1.866c.158-.518.709-.917,1.2-1.5" transform="translate(9668.618 -9141.047)" fill="#51ab1d"/>
    </g>
  </g>
</svg>
