<svg xmlns="http://www.w3.org/2000/svg" xmlns:xlink="http://www.w3.org/1999/xlink" width="46" height="46" viewBox="0 0 46 46">
  <defs>
    <clipPath id="clip-path">
      <rect id="Rectangle_3898" data-name="Rectangle 3898" width="28" height="28" fill="none"/>
    </clipPath>
  </defs>
  <g id="Group_9975" data-name="Group 9975" transform="translate(-480 -260)">
    <rect id="Rectangle_3867" data-name="Rectangle 3867" width="46" height="46" rx="5" transform="translate(480 260)" fill="#fff"/>
    <g id="Group_9480" data-name="Group 9480" transform="translate(-982.621 -128.656)">
      <g id="Group_9479" data-name="Group 9479" transform="translate(1471.621 397.656)">
        <g id="Group_9478" data-name="Group 9478" transform="translate(0 0)" clip-path="url(#clip-path)">
          <path id="Path_23308" data-name="Path 23308" d="M31.806,151.677c-2.887.005-5.774.029-8.66.007A1.994,1.994,0,0,1,21.29,149.5q-.009-4.807,0-9.614c0-.213,0-.425-.005-.637l10.517,0,.02-.01q-.007,6.216-.014,12.433" transform="translate(-18.648 -124.064)" fill="#b72929"/>
          <path id="Path_23309" data-name="Path 23309" d="M146.551,139.235q0,5.044,0,10.088a2.071,2.071,0,0,1-2.382,2.36q-4.063-.006-8.126-.017,0-.638,0-1.275-.008-5.58-.017-11.159l.023.01Z" transform="translate(-121.18 -124.053)" fill="#d22f2f"/>
          <path id="Path_23310" data-name="Path 23310" d="M12.781,81.785l-10.517,0a2.114,2.114,0,0,1-2.256-2.4c.061-.792.008-1.593.012-2.39a1.959,1.959,0,0,1,2.038-2.043c1.506-.016,3.012,0,4.517,0,.17.038.341.074.512.114,1.249.294,2.492.614,3.748.874.628.13,1.279.152,1.946.225Z" transform="translate(0.37 -66.595)" fill="#d33a30"/>
          <path id="Path_23311" data-name="Path 23311" d="M146.585,81.853l-10.505.006c0-1.7.017-3.4-.018-5.1-.01-.483.18-.606.6-.634a13.589,13.589,0,0,0,2-.2c1.188-.258,2.358-.6,3.535-.905,1.5,0,3.006,0,4.508.008a1.981,1.981,0,0,1,2.136,2.154c0,.742,0,1.485,0,2.227,0,1.629-.64,2.322-2.258,2.445" transform="translate(-121.214 -66.671)" fill="#f34437"/>
          <path id="Path_23312" data-name="Path 23312" d="M31.814,14.829V9.2c-.667-.074-1.318-.1-1.946-.225-1.256-.26-2.5-.579-3.748-.874-.171-.04-.342-.076-.512-.114-.207-.128-.408-.268-.623-.38a7.59,7.59,0,0,1-2.952-2.454,3.086,3.086,0,0,1-.376-3.4A3.512,3.512,0,0,1,24.714.043c3.738-.306,6.128,1.584,7.735,4.749.072.141.146.281.219.422q0,4.8,0,9.606h-.84Zm-.218-7.4a8.5,8.5,0,0,0-2.8-4.628,5.19,5.19,0,0,0-4.566-.936,1.288,1.288,0,0,0-.882,2.164,4.887,4.887,0,0,0,1.175,1.278A12.571,12.571,0,0,0,31.6,7.429" transform="translate(-18.662 0.36)" fill="#dda809"/>
          <path id="Path_23313" data-name="Path 23313" d="M128.164,14.81q0-4.8,0-9.606a25.184,25.184,0,0,1,1.447-2.339A6.987,6.987,0,0,1,136.85.153a3,3,0,0,1,2.64,2.609,3.315,3.315,0,0,1-.613,2.258,7.7,7.7,0,0,1-3.185,2.653c-.188.1-.37.2-.555.307-1.178.306-2.348.647-3.536.905a13.6,13.6,0,0,1-2,.2c-.421.027-.61.151-.6.634.035,1.7.016,3.4.018,5.1l-.023-.01-.831.007Zm1.075-7.381c2.824-.2,5.44-.665,7.576-2.558a3.556,3.556,0,0,0,.669-.819c.646-1.07.315-1.92-.9-2.2a5.227,5.227,0,0,0-4.486.889,7.741,7.741,0,0,0-2.554,3.708c-.108.291-.186.592-.307.983" transform="translate(-114.153 0.37)" fill="#fec10a"/>
          <path id="Path_23314" data-name="Path 23314" d="M120.194,139.244h.84v.005q0,6.214,0,12.428h-.851q.007-6.216.014-12.433" transform="translate(-107.023 -124.064)" fill="#dd7c00"/>
          <path id="Path_23315" data-name="Path 23315" d="M128.18,151.665q0-6.214,0-12.427l.831-.007q.009,5.58.017,11.159,0,.638,0,1.275h-.852" transform="translate(-114.171 -124.052)" fill="#fe8e00"/>
        </g>
      </g>
    </g>
  </g>
</svg>
