<svg xmlns="http://www.w3.org/2000/svg" xmlns:xlink="http://www.w3.org/1999/xlink" width="46" height="46" viewBox="0 0 46 46">
  <defs>
    <clipPath id="clip-path">
      <rect id="Rectangle_3848" data-name="Rectangle 3848" width="23.468" height="22.259" fill="#fff"/>
    </clipPath>
  </defs>
  <g id="Group_9965" data-name="Group 9965" transform="translate(-480 -260)">
    <rect id="Rectangle_3867" data-name="Rectangle 3867" width="46" height="46" rx="5" transform="translate(480 260)" fill="#51ab1d"/>
    <g id="Group_9613" data-name="Group 9613" transform="translate(491.266 272.225)">
      <g id="Group_9433" data-name="Group 9433" transform="translate(0 0)" clip-path="url(#clip-path)">
        <path id="Path_23295" data-name="Path 23295" d="M15.874,2.151h0Zm-7.229.116h0M15.5,2.53a8.677,8.677,0,0,1,1.766,1.027,5.487,5.487,0,0,0,.557,4,5.5,5.5,0,0,0,3.229,2.478,7.623,7.623,0,0,1,0,2.073,5.128,5.128,0,0,0-3.92,4.173,5.862,5.862,0,0,0,.084,2.362q-.75.486-1.512.908a5.345,5.345,0,0,0-7.7.1c-.567-.3-1.13-.627-1.685-.973.047-.165.086-.325.121-.479a4.2,4.2,0,0,0,.1-.67,2.151,2.151,0,0,0,.013-.275,5.426,5.426,0,0,0-4.157-5.293A9.173,9.173,0,0,1,2.422,9.99a5.429,5.429,0,0,0,3.43-2.53,5.4,5.4,0,0,0,.6-4c.519-.31,1.042-.6,1.565-.877A5.441,5.441,0,0,0,11.73,4.092,5.478,5.478,0,0,0,15.5,2.53m-13,6.945h0M8.241,0a1.42,1.42,0,0,0-.635.163,33.769,33.769,0,0,0-3.051,1.71,1.289,1.289,0,0,0-.526,1.677A3.09,3.09,0,0,1,1.488,7.781,1.4,1.4,0,0,0,.2,9.043a11.314,11.314,0,0,0-.087,3.694,1.478,1.478,0,0,0,1.4,1.442c.11.02.224.045.334.069a3.088,3.088,0,0,1,2.354,3.03,2.587,2.587,0,0,1-.048.391,6.044,6.044,0,0,1-.214.747,1.379,1.379,0,0,0,.5,1.852,31.083,31.083,0,0,0,3.113,1.8,1.589,1.589,0,0,0,.718.194,1.518,1.518,0,0,0,1.171-.7,3.038,3.038,0,0,1,4.853-.084,1.551,1.551,0,0,0,1.173.669,1.674,1.674,0,0,0,.77-.216,28.311,28.311,0,0,0,2.756-1.649,1.493,1.493,0,0,0,.575-1.888,3.961,3.961,0,0,1-.131-1.672,2.847,2.847,0,0,1,2.448-2.395,1.521,1.521,0,0,0,1.385-1.244A10.176,10.176,0,0,0,23.294,9.2,1.427,1.427,0,0,0,22.02,7.865a3.055,3.055,0,0,1-2.381-4.1,1.43,1.43,0,0,0-.519-1.735A11.075,11.075,0,0,0,15.882.155a1.884,1.884,0,0,0-.654-.133,1.458,1.458,0,0,0-1.105.564A3.238,3.238,0,0,1,11.73,1.745,3.206,3.206,0,0,1,9.355.6,1.52,1.52,0,0,0,8.241,0" transform="translate(0 0)" fill="#fff"/>
        <path id="Path_23296" data-name="Path 23296" d="M10.592,8.495a1.56,1.56,0,0,1,1.09,2.665,1.562,1.562,0,0,1-2.666-1.105A1.569,1.569,0,0,1,10.59,8.495Zm0-2.347a3.909,3.909,0,1,0-.009,7.818h0a3.909,3.909,0,0,0,.008-7.818Z" transform="translate(1.156 1.066)" fill="#fff"/>
      </g>
    </g>
  </g>
</svg>
