<svg xmlns="http://www.w3.org/2000/svg" width="46" height="46" viewBox="0 0 46 46">
  <g id="Group_9973" data-name="Group 9973" transform="translate(-480 -260)">
    <rect id="Rectangle_3867" data-name="Rectangle 3867" width="46" height="46" rx="5" transform="translate(480 260)" fill="#51ab1d"/>
    <g id="Group_9642" data-name="Group 9642" transform="translate(17016.066 6914.201)">
      <path id="Path_23399" data-name="Path 23399" d="M27.374,43A2.116,2.116,0,0,0,25.1,40.738c-7.433-.007-15.109-.007-22.816,0A2.118,2.118,0,0,0,0,43.046C0,44.164,0,45.327,0,46.6a2.147,2.147,0,0,0,1.812,2.272c1.234.281,2.489.561,3.7.831l5.434,1.214q0,.16,0,.317c0,.425,0,.827-.005,1.231a.944.944,0,0,0,1.036,1.063l.59,0c.437,0,.881,0,1.327,0,.493,0,.989,0,1.482-.009.727-.011,1.028-.326,1.038-1.09.005-.4,0-.791,0-1.207q0-.152,0-.306c.118-.029.221-.054.324-.078l2.755-.615c2-.446,4.066-.907,6.1-1.365a2.134,2.134,0,0,0,1.771-2.2c.009-1.228.009-2.459,0-3.659M1.858,44.552c0-.491,0-.983,0-1.474,0-.465.022-.483.5-.483q11.328,0,22.656,0c.482,0,.5.018.5.48,0,.571,0,1.142,0,1.713,0,.6,0,1.224,0,1.837,0,.331-.1.418-.3.462q-4.4.984-8.8,1.961c-.14-.891-.369-1.012-1.406-1.012H12.36c-1.029,0-1.267.122-1.407,1.01l-.163-.036c-.352-.077-.7-.153-1.052-.231l-2.093-.47c-1.748-.393-3.555-.8-5.336-1.187-.363-.079-.461-.2-.456-.543.01-.676.008-1.362.007-2.026m12.714,7.1H12.819V49.926h1.754Z" transform="translate(-16527 -6679.477)" fill="#fff"/>
      <path id="Path_23400" data-name="Path 23400" d="M27.373,120.711a1.07,1.07,0,0,0-.411-.9.953.953,0,0,0-.875-.105,1.018,1.018,0,0,0-.647,1.138v.028q0,2.114,0,4.228,0,1.489,0,2.978c0,.454-.037.586-.068.616s-.164.068-.621.068H2.634c-.459,0-.592-.037-.624-.068s-.067-.161-.068-.613q0-1.618,0-3.235,0-2.037,0-4.074a1.177,1.177,0,0,0-.282-.856.93.93,0,0,0-.683-.251c-.364,0-.974.145-.972,1.1q0,1.093,0,2.187c0,1.817,0,3.7.022,5.545A2.681,2.681,0,0,0,.5,129.889a2.19,2.19,0,0,0,2.02.827h.008q3.877,0,7.754,0h5.888c2.494,0,6.2,0,8.735,0a2.2,2.2,0,0,0,2.473-2.426q0-1.306,0-2.613v-1.1q0-.538,0-1.076c0-.914,0-1.86-.006-2.791" transform="translate(-16527 -6750.153)" fill="#fff"/>
      <path id="Path_23401" data-name="Path 23401" d="M82.108,3.6a1.043,1.043,0,0,0,.909-.208,1.186,1.186,0,0,0,.274-.832,1.571,1.571,0,0,1,.1-.629,1.532,1.532,0,0,1,.632-.079h4.909a2.345,2.345,0,0,1,.882.072,2.348,2.348,0,0,1,.159.864.872.872,0,0,0,.9.871h.02a.868.868,0,0,0,.9-.781,2.459,2.459,0,0,0-.43-2.048,2.434,2.434,0,0,0-1.9-.822C88.8,0,88.127,0,87.478,0l-.843,0L85.7,0c-.653,0-1.328,0-1.993.005a2.227,2.227,0,0,0-1.74.738A2.668,2.668,0,0,0,81.5,2.917a.934.934,0,0,0,.6.68" transform="translate(-16599.949 -6643)" fill="#fff"/>
    </g>
  </g>
</svg>
