<svg xmlns="http://www.w3.org/2000/svg" xmlns:xlink="http://www.w3.org/1999/xlink" width="46" height="46" viewBox="0 0 46 46">
  <defs>
    <clipPath id="clip-path">
      <rect id="Rectangle_3941" data-name="Rectangle 3941" width="20.17" height="20.192" fill="#fff"/>
    </clipPath>
  </defs>
  <g id="Group_9964" data-name="Group 9964" transform="translate(-480 -260)">
    <rect id="Rectangle_3867" data-name="Rectangle 3867" width="46" height="46" rx="5" transform="translate(480 260)" fill="#51ab1d"/>
    <g id="Group_9612" data-name="Group 9612" transform="translate(492.828 273.122)">
      <g id="Group_9522" data-name="Group 9522" clip-path="url(#clip-path)">
        <path id="Path_23329" data-name="Path 23329" d="M19.158,18.3c-.322-.005-.647,0-.961,0H17.1V17.6c0-.826,0-1.631,0-2.436,0-.2,0-.4,0-.6,0-.478.005-.973-.009-1.462a1.5,1.5,0,0,0-1.508-1.522c-.093,0-.182,0-.268,0a2.134,2.134,0,0,1-.276-.005,4.967,4.967,0,0,0-2.33-3.065,5.994,5.994,0,0,0,1.538-4.4A4.012,4.012,0,0,0,10.711.055a3.955,3.955,0,0,0-4.6,2.9A5.868,5.868,0,0,0,7.459,8.518a4.631,4.631,0,0,0-2.226,2.814c-.074.25-.1.267-.385.259A1.748,1.748,0,0,0,3.52,12a1.774,1.774,0,0,0-.451,1.336q0,1.709,0,3.417v1.539H1.254a1.358,1.358,0,0,0-1.019.326A.864.864,0,0,0,0,19.27c.013.42.24.921,1.248.921h17.9a.95.95,0,1,0,.006-1.895M10.708,7.73a1.093,1.093,0,0,1-.981.119A3.456,3.456,0,0,1,7.942,5.581l.282-.06A12.665,12.665,0,0,0,9.6,5.175a3.5,3.5,0,0,0,.8-.428c.117-.077.228-.149.34-.211l.012-.007c.022-.013.057-.032.085-.046.427.134.852.282,1.3.437l.186.064A3.694,3.694,0,0,1,10.708,7.73m.977-4.953A1.7,1.7,0,0,0,9.624,3,2.9,2.9,0,0,1,7.9,3.648a1.982,1.982,0,0,1,2.022-1.73l.133,0a2.1,2.1,0,0,1,1.954,1,2.189,2.189,0,0,1-.324-.139M8.021,10.407A2.2,2.2,0,0,1,9.354,9.88l.206,0a7.113,7.113,0,0,1,1.659.091,2.477,2.477,0,0,1,1.793,1.6H7.154a2.824,2.824,0,0,1,.867-1.156m7.157,7.873H5V13.516h10.18Z" transform="translate(0 0)" fill="#fff"/>
        <path id="Path_23330" data-name="Path 23330" d="M122.927,196.01h.037a.836.836,0,1,0-.037,0" transform="translate(-112.843 -179.618)" fill="#fff"/>
      </g>
    </g>
  </g>
</svg>
