<svg xmlns="http://www.w3.org/2000/svg" xmlns:xlink="http://www.w3.org/1999/xlink" width="46" height="46" viewBox="0 0 46 46">
  <defs>
    <clipPath id="clip-path">
      <rect id="Rectangle_3977" data-name="Rectangle 3977" width="20.74" height="19.512" fill="#fff"/>
    </clipPath>
  </defs>
  <g id="Group_9963" data-name="Group 9963" transform="translate(-480 -260)">
    <rect id="Rectangle_3867" data-name="Rectangle 3867" width="46" height="46" rx="5" transform="translate(480 260)" fill="#51ab1d"/>
    <g id="Group_9944" data-name="Group 9944" transform="translate(493 274)">
      <g id="Group_9946" data-name="Group 9946" transform="translate(-0.37 -0.256)">
        <g id="Group_9676" data-name="Group 9676" clip-path="url(#clip-path)">
          <path id="Path_23413" data-name="Path 23413" d="M16.858,7.483H3.881v.485q0,5.241,0,10.483c0,.836-.22,1.056-1.055,1.057-.648,0-1.3.007-1.943,0-.621-.009-.878-.275-.878-.9Q0,12.151,0,5.7a.9.9,0,0,1,.551-.9Q5.236,2.464,9.914.116a.959.959,0,0,1,.925.006q4.66,2.338,9.326,4.664a.927.927,0,0,1,.575.923q-.012,6.456-.006,12.912c0,.618-.261.878-.893.885-.688.008-1.376.007-2.064,0-.663-.006-.918-.271-.918-.949q0-5.282,0-10.564V7.483" transform="translate(0 -0.001)" fill="#fff"/>
          <path id="Path_23414" data-name="Path 23414" d="M67,111.283c0-1.38,0-2.687,0-3.993,0-.717.123-.838.851-.838q2.124,0,4.247,0c.57,0,.741.176.741.754q0,4.591,0,9.182c0,.552-.177.732-.72.732q-4.611,0-9.223,0c-.548,0-.724-.177-.725-.727q0-2.2,0-4.409c0-.532.169-.7.7-.7,1.214,0,2.427,0,3.641,0H67m2.037-1.842-1-1v2l1-1m-4.985,2.876,1.013,1.031,1.059-1.031Zm4.819,0,1.036,1,.987-1Zm1.123-2.055-1.006.99h1.993l-.987-.99m-3.025,4.964v-2.059l-1.071,1,1.071,1.063m1.077-2.031v2.053l1.02-1.013-1.02-1.04m.757-5.7,1.071,1.017,1.006-1.017Zm2.979.811-1.042,1.04,1.042,1.083Zm-7.5,5.933-1.046-1.066V115.3l1.046-1.063m6.471-.109,1.022,1.007v-1.986l-1.022.979m-6.733,1.931h2.1l-1.044-1.095-1.059,1.095m5.935-1.053L68.9,116.046h2.049l-.989-1.039" transform="translate(-57.133 -97.831)" fill="#fff"/>
        </g>
      </g>
    </g>
  </g>
</svg>
