<svg xmlns="http://www.w3.org/2000/svg" width="46" height="46" viewBox="0 0 46 46">
  <g id="Group_9971" data-name="Group 9971" transform="translate(-480 -260)">
    <rect id="Rectangle_3867" data-name="Rectangle 3867" width="46" height="46" rx="5" transform="translate(480 260)" fill="#51ab1d"/>
    <g id="Group_9555" data-name="Group 9555" transform="translate(-9545 8973.201)">
      <path id="Path_23370" data-name="Path 23370" d="M20.247,9.872V7.33c0-.165-.014-.327-.029-.477a2.473,2.473,0,0,0-2.371-2.264c-.226-.012-.452-.009-.671-.006l-.168,0a2.542,2.542,0,0,0-2.08-1.517,3.321,3.321,0,0,0-.422-.012,1.055,1.055,0,0,1-.568-.077,1.153,1.153,0,0,1-.193-.6,3.844,3.844,0,0,0-.076-.391A2.506,2.506,0,0,0,11.107.005C10.509,0,9.876,0,9.172,0A2.522,2.522,0,0,0,6.579,2.013c-.07.267-.138.534-.207.809l-.06.236-.168,0c-.234,0-.454-.005-.678.005A2.259,2.259,0,0,0,3.483,4.2a.658.658,0,0,1-.706.386H2.714A2.744,2.744,0,0,0,.731,5.3a2.677,2.677,0,0,0-.72,1.951C0,12.682,0,18.241.011,23.774a2.489,2.489,0,0,0,2.733,2.674l6.036,0,8.757,0a3.449,3.449,0,0,0,.7-.053,2.5,2.5,0,0,0,2.011-2.7c0-4.609,0-9.294,0-13.826M5.005,5.536A.524.524,0,0,1,5.573,5c.469-.019.948-.012,1.36,0a1.041,1.041,0,0,0,1.115-.863c.058-.23.114-.46.17-.69.066-.275.135-.559.207-.836.144-.553.277-.659.837-.663s1.136,0,1.726,0c.563,0,.7.108.84.659.062.237.12.48.176.715.06.251.122.51.188.764a1.046,1.046,0,0,0,1.168.911c.219,0,.437,0,.656,0h.364a1.04,1.04,0,0,1,.725.168,1.009,1.009,0,0,1,.154.709c0,.068-.007.137-.015.215H5c0-.024,0-.048,0-.072a4.418,4.418,0,0,1,.007-.473M18.311,23.542c0,.881-.093.972-.989.972H2.933c-.889,0-.991-.1-.991-.973q0-7.957,0-15.915c0-.574.058-.859.2-.986a.754.754,0,0,1,.5-.122c.111,0,.242.008.393.023.006.118.011.237.015.357.027.8.378,1.141,1.172,1.141q3.226,0,6.452,0h5.243c.931,0,1.252-.316,1.274-1.247,0-.086.006-.172.012-.277h.068c.173,0,.323-.006.471.006a.531.531,0,0,1,.549.522,2.949,2.949,0,0,1,.013.365v.068q0,8.034,0,16.067" transform="translate(10037.876 -8703.451)" fill="#fff"/>
      <path id="Path_23371" data-name="Path 23371" d="M34.982,90.943c-.1.088-.194.183-.284.274l-.089.09-1.592,1.6-.437.438-.174-.192c-.22-.242-.427-.471-.651-.683a.957.957,0,0,0-1.631.654,1,1,0,0,0,.287.705c.477.5.986,1.013,1.512,1.513a1,1,0,0,0,.691.3.965.965,0,0,0,.678-.3c1.038-1.018,2.064-2.044,3.05-3.051a.943.943,0,0,0,.01-1.335.972.972,0,0,0-1.371-.012" transform="translate(10010.814 -8784.897)" fill="#fff"/>
      <path id="Path_23372" data-name="Path 23372" d="M31.9,140.207a1.076,1.076,0,0,0,.742.342,1.065,1.065,0,0,0,.744-.349c.925-.912,1.83-1.822,2.9-2.907a1.152,1.152,0,0,0,.3-.453.9.9,0,0,0-.4-1.117.94.94,0,0,0-1.218.164c-.578.582-1.153,1.167-1.758,1.782l-.592.6-.159-.177c-.2-.223-.391-.434-.59-.631a1.144,1.144,0,0,0-.792-.361h-.009a.908.908,0,0,0-.652.29A.98.98,0,0,0,30.5,138.8c.486.5.945.961,1.4,1.4" transform="translate(10010.785 -8825.234)" fill="#fff"/>
      <path id="Path_23373" data-name="Path 23373" d="M34.974,180.936c-.1.088-.195.183-.285.275l-.088.09-2.031,2.037-.172-.189c-.219-.243-.426-.472-.65-.684a.958.958,0,0,0-1.635.639,1,1,0,0,0,.285.715c.469.5.977,1,1.512,1.514a1.009,1.009,0,0,0,.695.3.96.96,0,0,0,.674-.293c1.022-1,2.048-2.027,3.05-3.051a.945.945,0,0,0,.015-1.335.97.97,0,0,0-1.371-.018" transform="translate(10010.825 -8865.738)" fill="#fff"/>
      <path id="Path_23374" data-name="Path 23374" d="M110.559,105.5c-1.382-.009-2.817-.009-4.264,0-.677,0-1.092.353-1.11.932a.913.913,0,0,0,.239.677,1.194,1.194,0,0,0,.869.32c.275,0,.552.006.828.006l.627,0q.642,0,1.284,0c.5,0,1.019,0,1.529,0,.676-.01,1.09-.359,1.108-.933a.917.917,0,0,0-.243-.683,1.18,1.18,0,0,0-.867-.314" transform="translate(9943.391 -8798.216)" fill="#fff"/>
      <path id="Path_23375" data-name="Path 23375" d="M110.559,150.506c-.5-.008-1-.006-1.49,0q-.644,0-1.287,0c-.488,0-.992,0-1.49,0-.676.011-1.09.359-1.108.933a.917.917,0,0,0,.243.682,1.182,1.182,0,0,0,.867.314c.7,0,1.406.007,2.121.007s1.426,0,2.143-.007c.677,0,1.092-.353,1.11-.933a.914.914,0,0,0-.239-.677,1.194,1.194,0,0,0-.869-.319" transform="translate(9943.39 -8838.646)" fill="#fff"/>
      <path id="Path_23376" data-name="Path 23376" d="M110.551,195.5c-1.46-.009-2.894-.009-4.264,0a.972.972,0,0,0-1.1.945.912.912,0,0,0,.242.669,1.212,1.212,0,0,0,.876.315c.283,0,.568.005.851.005h.628c.218,0,.437,0,.655,0h.624c.478,0,.971,0,1.458,0,.719-.009,1.138-.354,1.149-.947a.915.915,0,0,0-.246-.674,1.2,1.2,0,0,0-.874-.31" transform="translate(9943.388 -8879.062)" fill="#fff"/>
      <path id="Path_23377" data-name="Path 23377" d="M91.121,32h.024a.967.967,0,0,0,.933-.953.958.958,0,0,0-.289-.7.941.941,0,0,0-.69-.275.963.963,0,0,0-.644,1.651.942.942,0,0,0,.666.275" transform="translate(9956.879 -8730.467)" fill="#fff"/>
    </g>
  </g>
</svg>
