<svg xmlns="http://www.w3.org/2000/svg" width="46" height="46" viewBox="0 0 46 46">
  <g id="Group_9974" data-name="Group 9974" transform="translate(-480 -260)">
    <rect id="Rectangle_3867" data-name="Rectangle 3867" width="46" height="46" rx="5" transform="translate(480 260)" fill="#51ab1d"/>
    <g id="Group_9935" data-name="Group 9935" transform="translate(15228 12614)">
      <path id="Path_57997" data-name="Path 57997" d="M16.1,18.277a.558.558,0,0,1,.037-.732,8.233,8.233,0,0,0,1.684-4.466,8.135,8.135,0,0,0-.451-3.331,4.606,4.606,0,0,1-1.574.342,6.588,6.588,0,0,1,.451,2.367A6.82,6.82,0,0,1,9.473,19.3H9.461A6.809,6.809,0,1,1,9.412,5.684,2.351,2.351,0,0,1,9.7,5.7a.045.045,0,0,1-.012-.037,5.517,5.517,0,0,1-.171-1.367.923.923,0,0,1,.012-.183A8.378,8.378,0,0,0,2.847,17.63a.507.507,0,0,1,.024.683C1.993,19.8,1.125,21.3.248,22.8c-.22.366-.39.732-.073,1.135s.72.305,1.135.183c.708-.22,1.428-.427,2.172-.647.305.891.61,1.757.9,2.611a.8.8,0,0,0,1.489.159c.586-1.037,1.184-2.062,1.769-3.1a.771.771,0,0,0-.024-.94A.791.791,0,0,0,7.374,22a.768.768,0,0,0-1.049.317c-.329.537-.635,1.086-.988,1.7-.22-.61-.39-1.135-.586-1.647a.4.4,0,0,0-.049-.171.787.787,0,0,0-1.049-.4c-.354.1-.72.207-1.2.342l1.769-3.026a8.538,8.538,0,0,0,10.518-.049l1.806,3.075c-.477-.146-.842-.256-1.208-.354a.6.6,0,0,0-.159-.049.8.8,0,0,0-.941.622c-.182.525-.353,1.037-.572,1.647-.354-.61-.659-1.159-.988-1.684-.134-.2-.354-.439-.549-.464a1.193,1.193,0,0,0-.781.244.71.71,0,0,0-.061.94c.586,1,1.159,2,1.732,3.014.209.366.441.683.915.622.453-.049.624-.378.746-.757.268-.805.549-1.611.83-2.44.781.22,1.537.439,2.27.671a.86.86,0,0,0,1.036-.22.843.843,0,0,0-.023-1.062c-.9-1.525-1.782-3.063-2.7-4.588" transform="translate(-14735 -12344.095)" fill="#fff"/>
      <path id="Path_57998" data-name="Path 57998" d="M7.915,7.172c-.012.024-.024.037-.037.061a18.519,18.519,0,0,0-.854,1.879.75.75,0,0,1-.7.488c-.622.073-1.245.2-1.867.293a.833.833,0,0,0-.683.354A.812.812,0,0,0,4,11.382c.488.439.964.9,1.464,1.33a.617.617,0,0,1,.207.659c-.11.635-.207,1.269-.305,1.916a.788.788,0,0,0,.256.879.863.863,0,0,0,.988,0c.61-.329,1.208-.671,1.83-.964a.781.781,0,0,1,.6-.012c.635.268,1.245.6,1.855.9a.816.816,0,0,0,1.22-.952c-.134-.635-.232-1.269-.378-1.9a.592.592,0,0,1,.207-.647c.488-.451.94-.927,1.428-1.391a.818.818,0,0,0,.256-.915.777.777,0,0,0-.744-.525c-.683-.073-1.367-.146-2.05-.268a.869.869,0,0,1-.525-.354c-.354-.586-.635-1.33-1-1.916A.267.267,0,0,0,9.27,7.16,1.131,1.131,0,0,0,9.1,6.989a.854.854,0,0,0-1.184.183m.83,2.465a2,2,0,0,0,2.453,1.4c-.439.525-.94.879-1.086,1.342a4.946,4.946,0,0,0,.134,1.7,1.151,1.151,0,0,0-.122-.122,2.032,2.032,0,0,0-2.88.159l-.061-.122a8.322,8.322,0,0,1,.122-.964,1.007,1.007,0,0,0-.4-1.123c-.244-.2-.476-.427-.72-.647A4.894,4.894,0,0,0,7.793,10.8a5.094,5.094,0,0,0,.9-1.452,2.443,2.443,0,0,0,.049.293" transform="translate(-14734.199 -12343.496)" fill="#fff"/>
      <path id="Path_57999" data-name="Path 57999" d="M13.526,0a5.244,5.244,0,0,0-5.2,4.747,2.351,2.351,0,0,0-.012.293A.7.7,0,0,0,8.3,5.2a4.989,4.989,0,0,0,.146,1.22c.024.085.049.171.073.244a5.206,5.206,0,0,0,5,3.758.924.924,0,0,0,.183-.012.2.2,0,0,0,.085,0l.4-.037a5.617,5.617,0,0,0,1.123-.293l.11-.037A5.2,5.2,0,0,0,13.526,0m1.232,8.651a3.614,3.614,0,0,1-1.232.232,3.125,3.125,0,0,1-.476-.037,3.686,3.686,0,0,1-2.9-2.172A3.524,3.524,0,0,1,9.828,5.2a1.255,1.255,0,0,1,.012-.207,3.682,3.682,0,1,1,4.918,3.661" transform="translate(-14733.171 -12345)" fill="#fff"/>
      <path id="Path_58000" data-name="Path 58000" d="M12.961,4.285c-.476-.061-.915-.122-.915-.5s.427-.525.891-.525a1.177,1.177,0,0,1,.952.427l.6-.281a1.413,1.413,0,0,0-1.159-.769V2.15h-.708v.488c-.659.085-1.306.415-1.306,1.147,0,.927.781,1.074,1.586,1.159.525.061.988.2.988.561,0,.439-.464.61-.976.61A1.2,1.2,0,0,1,11.8,5.53l-.2.085-.464.2a1.672,1.672,0,0,0,1.476.964V7.3h.708V6.738a1.28,1.28,0,0,0,1.318-1.232c0-.976-.866-1.123-1.684-1.22" transform="translate(-14732.546 -12344.526)" fill="#fff"/>
    </g>
  </g>
</svg>
