<svg xmlns="http://www.w3.org/2000/svg" xmlns:xlink="http://www.w3.org/1999/xlink" width="20" height="20" viewBox="0 0 20 20"><defs><clipPath id="a"><rect width="20" height="20" fill="#8b8b8b"/></clipPath></defs><g transform="translate(0 0)"><g transform="translate(0 0)" clip-path="url(#a)"><path d="M6.993,7.935H1.731V2.673H6.993ZM7.243.941H1.483A1.483,1.483,0,0,0,0,2.424v5.76A1.483,1.483,0,0,0,1.483,9.667h5.76A1.483,1.483,0,0,0,8.725,8.184V2.424A1.483,1.483,0,0,0,7.243.941" transform="translate(0 -0.126)" fill="#8b8b8b"/><path d="M16.559,1.629h0Zm-.248.248,3.3,3.3-3.3,3.3-3.3-3.3,3.3-3.3m0-1.877a1.377,1.377,0,0,0-.977.4l-3.8,3.8a1.383,1.383,0,0,0,0,1.955l3.8,3.8a1.38,1.38,0,0,0,1.954,0l3.8-3.8a1.383,1.383,0,0,0,0-1.955L17.289.4a1.377,1.377,0,0,0-.977-.4" transform="translate(-1.49 0)" fill="#8b8b8b"/><path d="M6.993,20.01H1.731V14.748H6.993Zm.249-6.994H1.483A1.483,1.483,0,0,0,0,14.5V20.26a1.482,1.482,0,0,0,1.483,1.483h5.76A1.482,1.482,0,0,0,8.725,20.26V14.5a1.483,1.483,0,0,0-1.483-1.483" transform="translate(0 -1.743)" fill="#8b8b8b"/><path d="M19.068,20.01H13.807V14.748h5.261Zm.25-6.994H13.558A1.483,1.483,0,0,0,12.075,14.5V20.26a1.482,1.482,0,0,0,1.483,1.483h5.761A1.482,1.482,0,0,0,20.8,20.26V14.5a1.483,1.483,0,0,0-1.482-1.483" transform="translate(-1.616 -1.743)" fill="#8b8b8b"/></g></g></svg>