<svg xmlns="http://www.w3.org/2000/svg" width="46" height="46" viewBox="0 0 46 46">
  <g id="Group_9966" data-name="Group 9966" transform="translate(-480 -260)">
    <rect id="Rectangle_3867" data-name="Rectangle 3867" width="46" height="46" rx="5" transform="translate(480 260)" fill="#51ab1d"/>
    <path id="bell-solid" d="M12.248,1.522v.913A7.627,7.627,0,0,1,18.372,9.9v.894a9.118,9.118,0,0,0,2.32,6.07l.354.395a1.514,1.514,0,0,1,.254,1.637,1.534,1.534,0,0,1-1.4.9H1.531A1.523,1.523,0,0,1,.387,17.255l.355-.395a9.108,9.108,0,0,0,2.32-6.07V9.9a7.585,7.585,0,0,1,6.124-7.46V1.522a1.531,1.531,0,0,1,3.062,0ZM10.717,24.358a3.072,3.072,0,0,1-2.167-.89,3.113,3.113,0,0,1-.895-2.155h6.124a3.113,3.113,0,0,1-.895,2.155A3.149,3.149,0,0,1,10.717,24.358Z" transform="translate(492.375 270.352)" fill="#fff"/>
  </g>
</svg>
