<svg xmlns="http://www.w3.org/2000/svg" xmlns:xlink="http://www.w3.org/1999/xlink" width="21" height="21" viewBox="0 0 21 21"><defs><clipPath id="a"><rect width="21" height="21" fill="#51ab1d"/></clipPath></defs><g transform="translate(0 0)"><g transform="translate(0 0)" clip-path="url(#a)"><path d="M7.343,8.285H1.818V2.76H7.343ZM7.6.941H1.557A1.557,1.557,0,0,0,0,2.5V8.546A1.557,1.557,0,0,0,1.557,10.1H7.6A1.557,1.557,0,0,0,9.162,8.546V2.5A1.557,1.557,0,0,0,7.6.941" transform="translate(0 -0.085)" fill="#51ab1d"/><path d="M16.831,1.711h0Zm-.26.26,3.467,3.467L16.571,8.9,13.1,5.437l3.467-3.467m0-1.971a1.446,1.446,0,0,0-1.026.425L11.559,4.411a1.452,1.452,0,0,0,0,2.053l3.986,3.986a1.449,1.449,0,0,0,2.052,0l3.986-3.986a1.452,1.452,0,0,0,0-2.053L17.6.425A1.446,1.446,0,0,0,16.571,0" transform="translate(-1.008 0)" fill="#51ab1d"/><path d="M7.343,20.36H1.818V14.835H7.343ZM7.6,13.016H1.557A1.557,1.557,0,0,0,0,14.573v6.049a1.556,1.556,0,0,0,1.557,1.557H7.6a1.556,1.556,0,0,0,1.557-1.557V14.573A1.557,1.557,0,0,0,7.6,13.016" transform="translate(0 -1.179)" fill="#51ab1d"/><path d="M19.418,20.36H13.894V14.835h5.524Zm.263-7.344H13.632a1.557,1.557,0,0,0-1.557,1.557v6.049a1.556,1.556,0,0,0,1.557,1.557h6.049a1.556,1.556,0,0,0,1.556-1.557V14.573a1.557,1.557,0,0,0-1.556-1.557" transform="translate(-1.094 -1.179)" fill="#51ab1d"/></g></g></svg>