<svg xmlns="http://www.w3.org/2000/svg" width="46" height="46" viewBox="0 0 46 46">
  <g id="Group_9959" data-name="Group 9959" transform="translate(-480 -260)">
    <rect id="Rectangle_3867" data-name="Rectangle 3867" width="46" height="46" rx="5" transform="translate(480 260)" fill="#51ab1d"/>
    <g id="Group_9670" data-name="Group 9670" transform="translate(-9220.613 9379)">
      <path id="Path_23342" data-name="Path 23342" d="M16.924,18.455,15.083,15.3a8.727,8.727,0,0,1-10.76.05l-1.81,3.105c.483-.141.852-.255,1.224-.357a.813.813,0,0,1,1.125.585c.192.53.374,1.064.593,1.69.366-.63.675-1.19,1.01-1.734a.794.794,0,0,1,1.324-.119.808.808,0,0,1,.03.969Q6.91,21.07,6,22.654a.792.792,0,0,1-.815.449.811.811,0,0,1-.706-.609c-.3-.878-.605-1.754-.922-2.669-.765.227-1.5.439-2.225.661-.42.128-.827.214-1.153-.191s-.155-.778.07-1.161c.9-1.527,1.785-3.063,2.689-4.588a.523.523,0,0,0-.03-.7A8.572,8.572,0,1,1,18.225,9.191,8.36,8.36,0,0,1,16.5,13.758a.559.559,0,0,0-.03.747c.931,1.561,1.833,3.139,2.756,4.7a.866.866,0,0,1,.03,1.082.876.876,0,0,1-1.064.217c-.756-.235-1.519-.45-2.318-.684-.293.854-.58,1.672-.855,2.495-.13.39-.3.732-.766.783-.487.054-.722-.263-.932-.638-.581-1.034-1.179-2.06-1.768-3.09a.718.718,0,0,1,.061-.953,1.157,1.157,0,0,1,.8-.248c.2.022.424.265.553.464.347.536.65,1.1,1.016,1.733.219-.624.4-1.157.592-1.686a.814.814,0,0,1,1.122-.59c.373.1.742.216,1.23.36m-7.241-2.9A6.963,6.963,0,1,0,2.69,8.611a6.981,6.981,0,0,0,6.992,6.941" transform="translate(9714 -9107)" fill="#fff"/>
      <path id="Path_23343" data-name="Path 23343" d="M54.665,38.084a.869.869,0,0,1,1.386-.02.762.762,0,0,1,.043.063c.368.6.66,1.358,1.021,1.962a.877.877,0,0,0,.538.365c.694.123,1.4.2,2.1.275a.8.8,0,0,1,.757.539.837.837,0,0,1-.268.935c-.489.466-.958.955-1.453,1.415a.622.622,0,0,0-.219.67c.149.643.26,1.294.392,1.941a.856.856,0,0,1-.275.935.838.838,0,0,1-.97.041c-.63-.316-1.256-.643-1.9-.925a.838.838,0,0,0-.611.011c-.636.3-1.252.649-1.871.987a.9.9,0,0,1-1.018,0,.822.822,0,0,1-.261-.9c.1-.653.2-1.306.319-1.955a.621.621,0,0,0-.216-.67c-.514-.438-.994-.916-1.5-1.364a.838.838,0,0,1,.469-1.53c.638-.1,1.274-.214,1.914-.29a.767.767,0,0,0,.708-.5,19.108,19.108,0,0,1,.881-1.926q.017-.03.038-.059m3.359,3.951A2.04,2.04,0,0,1,55.461,40.3a5.028,5.028,0,0,1-.917,1.488,4.969,4.969,0,0,1-1.648.474c.252.23.482.46.733.665a1.042,1.042,0,0,1,.415,1.146,8.878,8.878,0,0,0-.131.983l.072.127a2.082,2.082,0,0,1,3.068-.041,4.99,4.99,0,0,1-.135-1.725c.146-.479.655-.848,1.106-1.384" transform="translate(9668.247 -9141.325)" fill="#fff"/>
    </g>
  </g>
</svg>
