<svg xmlns="http://www.w3.org/2000/svg" width="46" height="46" viewBox="0 0 46 46">
  <g id="Group_9961" data-name="Group 9961" transform="translate(-480 -260)">
    <rect id="Rectangle_3867" data-name="Rectangle 3867" width="46" height="46" rx="5" transform="translate(480 260)" fill="#51ab1d"/>
    <g id="Group_9668" data-name="Group 9668" transform="translate(-8852.494 9142.681)">
      <path id="Path_23344" data-name="Path 23344" d="M20.987,8.208A3.564,3.564,0,0,0,19.8,5.454c-1.616-1.5-3.2-3.012-4.671-4.421A3.557,3.557,0,0,0,12.562,0H12.54C10.525.01,8.475.009,6.492.008H3.405a3.967,3.967,0,0,0-.738.05A3.224,3.224,0,0,0,0,3.436C0,5.843,0,8.29,0,10.656q0,1.5,0,3.008t0,3.013c0,2.348,0,4.775,0,7.163a3.247,3.247,0,0,0,3.509,3.479H17.477a3.245,3.245,0,0,0,3.5-3.485q0-3.623,0-7.245c0-2.747,0-5.587,0-8.38M14.454,3.55l2.838,2.685c-.979,0-1.905,0-2.825-.012-.015-.869-.014-1.747-.013-2.674m-2.3,2.4a2.245,2.245,0,0,0,2.576,2.569h3.956c0,.077.008.15.008.221q0,7.5,0,15.005c0,1.007-.28,1.283-1.3,1.283H3.527c-.947,0-1.236-.291-1.236-1.245q0-10.125,0-20.249c0-.954.289-1.245,1.236-1.245h8.624v.9c0,.939,0,1.852,0,2.764" transform="translate(9345 -8873)" fill="#fff"/>
      <path id="Path_23345" data-name="Path 23345" d="M33.549,116.186a1.064,1.064,0,0,0,.3.777,1.467,1.467,0,0,0,1.068.375H41.9q1.984,0,3.967,0c1.012,0,1.378-.586,1.382-1.134a1.064,1.064,0,0,0-.3-.777,1.466,1.466,0,0,0-1.069-.375q-5.476,0-10.952,0c-1.013,0-1.378.586-1.382,1.134" transform="translate(9314.935 -8976.104)" fill="#fff"/>
      <path id="Path_23346" data-name="Path 23346" d="M45.97,155.044c-1.333,0-2.689,0-4,0H38.878c-1.334,0-2.714,0-4.071,0a1.314,1.314,0,0,0-.95.366,1.1,1.1,0,0,0-.306.8,1.145,1.145,0,0,0,1.234,1.119h.522c1.386,0,2.79,0,4.2,0,2.159,0,4.335,0,6.49-.021a1.458,1.458,0,0,0,1.092-.6.978.978,0,0,0,.06-1.026,1.317,1.317,0,0,0-1.182-.636" transform="translate(9314.933 -9011.94)" fill="#fff"/>
      <path id="Path_23348" data-name="Path 23348" d="M41.358,195.028c-1.224-.008-5.427-.008-6.575,0a1.149,1.149,0,0,0-1.231,1.113,1.094,1.094,0,0,0,.3.792,1.319,1.319,0,0,0,.944.375c.4.006.8,0,1.2,0q.539,0,1.079,0h.562c.247,0,3.5,0,3.744-.005a1.137,1.137,0,0,0,1.22-1.115,1.1,1.1,0,0,0-.3-.809,1.283,1.283,0,0,0-.938-.357" transform="translate(9314.932 -9047.77)" fill="#fff"/>
      <path id="Path_23349" data-name="Path 23349" d="M38.358,195.028c-1.224-.008-2.427-.008-3.575,0a1.149,1.149,0,0,0-1.231,1.113,1.094,1.094,0,0,0,.3.792,1.319,1.319,0,0,0,.944.375c.4.006.8,0,1.2,0q.539,0,1.079,0h.562c.247,0,.5,0,.744-.005a1.137,1.137,0,0,0,1.22-1.115,1.1,1.1,0,0,0-.3-.809,1.283,1.283,0,0,0-.938-.357" transform="translate(9314.932 -9059.77)" fill="#fff"/>
    </g>
  </g>
</svg>
