<svg xmlns="http://www.w3.org/2000/svg" width="46" height="46" viewBox="0 0 46 46">
  <g id="Group_9960" data-name="Group 9960" transform="translate(-480 -260)">
    <rect id="Rectangle_3867" data-name="Rectangle 3867" width="46" height="46" rx="5" transform="translate(480 260)" fill="#51ab1d"/>
    <path id="Union_9" data-name="Union 9" d="M0,10.5A10.5,10.5,0,1,1,10.5,21,10.5,10.5,0,0,1,0,10.5ZM10.5,18A7.5,7.5,0,0,0,16.755,6.366L6.366,16.755A7.458,7.458,0,0,0,10.5,18ZM3,10.5a7.456,7.456,0,0,0,1.245,4.134L14.634,4.245A7.5,7.5,0,0,0,3,10.5Z" transform="translate(493 273)" fill="#fff"/>
  </g>
</svg>
