<svg xmlns="http://www.w3.org/2000/svg" xmlns:xlink="http://www.w3.org/1999/xlink" width="46" height="46" viewBox="0 0 46 46">
  <defs>
    <clipPath id="clip-path">
      <rect id="Rectangle_3960" data-name="Rectangle 3960" width="25.332" height="22.963" fill="#fff"/>
    </clipPath>
  </defs>
  <g id="Group_9962" data-name="Group 9962" transform="translate(-480 -260)">
    <rect id="Rectangle_3867" data-name="Rectangle 3867" width="46" height="46" rx="5" transform="translate(480 260)" fill="#51ab1d"/>
    <g id="Group_9669" data-name="Group 9669" transform="translate(490.334 271)">
      <g id="Group_9548" data-name="Group 9548" clip-path="url(#clip-path)">
        <path id="Path_23350" data-name="Path 23350" d="M25.328,11.6a1,1,0,0,0-1.117-1.118c-1.089,0-2.2,0-3.266,0-.426,0-.849,0-1.277,0h-.287V7.852q0-3.223,0-6.446C19.38.3,19.084,0,18,0Q12.663,0,7.324,0C6.259,0,5.952.307,5.951,1.362q0,3.2,0,6.4v2.722H4.4q-1.617,0-3.233,0A1.016,1.016,0,0,0,0,11.607c0,3.531,0,6.978,0,10.248a1,1,0,0,0,1.091,1.1c3.851,0,7.7,0,11.519,0,3.915,0,7.8,0,11.627,0a1,1,0,0,0,1.087-1.109c0-3.289.005-6.737,0-10.248M3.805,16.1a1.028,1.028,0,0,0,1.1,1.146c1.226.012,2.446.012,3.628,0A1.027,1.027,0,0,0,9.626,16.1c.008-.762.006-1.536.005-2.285q0-.477,0-.954v-.324h2.007v8.38H2.052V12.517H3.8v.829q0,.406,0,.812c0,.637,0,1.3.005,1.945m2.032-3.581H7.6v2.685H5.838Zm11.686-.005h1.714V15.2H17.523Zm3.757,1.255q0-.482,0-.965v-.275h2.005v8.394H13.7V12.533h1.769v1.194q0,.353,0,.705c0,.562,0,1.143,0,1.715a1,1,0,0,0,1.041,1.1c1.238.017,2.492.017,3.728,0a.987.987,0,0,0,1.036-1.1c.006-.791,0-1.6,0-2.372M11.8,2.03h1.72V4.743H11.8Zm-3.828.008H9.76v2.9c0,.847,0,1.272.277,1.551s.7.28,1.541.28h.816c.652,0,1.326,0,1.99,0,.817-.008,1.183-.378,1.185-1.2q0-.953,0-1.907,0-.714,0-1.429c0-.066,0-.134.007-.2h1.76v8.418H7.976Z" transform="translate(0)" fill="#fff"/>
        <path id="Path_23351" data-name="Path 23351" d="M194.054,187.249a.915.915,0,0,0-.923.99.932.932,0,0,0,.926.976c.132.009.263.012.393.012.1,0,.2,0,.294,0l.3,0h0l.3,0c.237,0,.482.007.727-.007a.931.931,0,0,0,.938-.961.908.908,0,0,0-.907-1c-.663-.028-1.353-.029-2.049,0" transform="translate(-174.465 -169.134)" fill="#fff"/>
        <path id="Path_23352" data-name="Path 23352" d="M71.975,189.215c.131.009.261.011.39.011.1,0,.206,0,.307,0s.192,0,.288,0l.31,0c.235,0,.478.007.721-.008a.93.93,0,0,0,.929-.97.912.912,0,0,0-.915-1c-.69-.028-1.38-.028-2.049,0a.911.911,0,0,0-.913,1,.934.934,0,0,0,.934.966" transform="translate(-64.175 -169.133)" fill="#fff"/>
        <path id="Path_23353" data-name="Path 23353" d="M133.6,78.812a17.358,17.358,0,0,0-2.194-.006.91.91,0,0,0-.856,1,.949.949,0,0,0,.931.967c.131.01.262.013.392.013.1,0,.2,0,.3,0s.192,0,.288,0l.306,0c.236,0,.48.007.725-.008a.955.955,0,0,0,.951-.947.911.911,0,0,0-.841-1.02" transform="translate(-117.931 -71.161)" fill="#fff"/>
      </g>
    </g>
  </g>
</svg>
