<svg xmlns="http://www.w3.org/2000/svg" width="46" height="46" viewBox="0 0 46 46">
  <g id="Group_9968" data-name="Group 9968" transform="translate(-480 -260)">
    <g id="Group_9967" data-name="Group 9967">
      <rect id="Rectangle_3867" data-name="Rectangle 3867" width="46" height="46" rx="5" transform="translate(480 260)" fill="#51ab1d"/>
    </g>
    <g id="Group_9521" data-name="Group 9521" transform="translate(-10196.916 9414.038)">
      <path id="Path_23325" data-name="Path 23325" d="M19.381,6.017H2.576v.408q0,5.98,0,11.961a1.724,1.724,0,0,0,1.879,1.857c1.7,0,3.4,0,5.1,0,.653,0,1.042.336,1.029.879-.012.524-.392.836-1.029.837-1.743,0-3.486.007-5.229,0A3.42,3.42,0,0,1,.861,18.474q-.008-5.959,0-11.918v-.5C.15,5.812,0,5.61,0,4.9c0-.757,0-1.515,0-2.272A2.564,2.564,0,0,1,2.6,0Q10.978,0,19.357,0a2.564,2.564,0,0,1,2.6,2.618c.006.757,0,1.515,0,2.272,0,.715-.149.918-.857,1.157,0,.962,0,1.933,0,2.9,0,.653-.336,1.044-.876,1.033-.524-.011-.838-.391-.839-1.026,0-.969,0-1.937,0-2.945M1.72,4.26H20.238c0-.487,0-.943,0-1.4,0-.875-.271-1.142-1.158-1.142H2.877c-.1,0-.2,0-.3,0a.844.844,0,0,0-.853.84c-.017.556,0,1.112,0,1.7" transform="translate(10689.029 -9141.471)" fill="#fff"/>
      <path id="Path_23325_-_Outline" data-name="Path 23325 - Outline" d="M6.518,22.271c-.81,0-1.517,0-2.162,0A3.687,3.687,0,0,1,.611,18.5c0-2.82,0-5.687,0-8.459q0-1.73,0-3.459V6.277c-.667-.262-.857-.583-.857-1.352q0-.29,0-.58c0-.555,0-1.129,0-1.694a2.838,2.838,0,0,1,2.875-2.9c2.78,0,5.6,0,8.379,0s5.6,0,8.379,0A2.839,2.839,0,0,1,22.262,2.65c0,.569,0,1.148,0,1.707q0,.284,0,.568c0,.77-.191,1.09-.857,1.352v.678q0,1.013,0,2.031c0,.807-.459,1.325-1.161,1.311-.684-.014-1.111-.514-1.113-1.3,0-.681,0-1.363,0-2.058V6.325H2.884v3.4q0,4.344,0,8.687a1.449,1.449,0,0,0,1.6,1.578h5.1a1.377,1.377,0,0,1,1.013.367,1.076,1.076,0,0,1,.295.8,1.148,1.148,0,0,1-1.307,1.109H8.622ZM11.007.308c-2.78,0-5.6,0-8.379,0A2.292,2.292,0,0,0,.31,2.655c0,.562,0,1.135,0,1.689q0,.291,0,.581c0,.592.075.692.668.893l.189.064v.7q0,1.73,0,3.46c0,2.772,0,5.639,0,8.458a3.141,3.141,0,0,0,3.19,3.207c.644,0,1.351,0,2.16,0l2.1,0h.964c.336,0,.739-.1.75-.565a.525.525,0,0,0-.136-.4.844.844,0,0,0-.614-.2h-5.1a2,2,0,0,1-2.158-2.136q0-4.344,0-8.688V5.767H19.689V6.935c0,.694,0,1.375,0,2.056,0,.336.1.738.566.748h.017c.5,0,.574-.473.575-.755q0-1.016,0-2.03V5.881l.19-.064c.592-.2.667-.3.668-.893q0-.284,0-.568c0-.558,0-1.135,0-1.7A2.293,2.293,0,0,0,19.386.312C16.606.309,13.787.308,11.007.308Zm9.539,4.259H1.47V4.289c0-.179,0-.356,0-.53,0-.4-.006-.787.007-1.178A1.12,1.12,0,0,1,2.59,1.471c.041,0,.084,0,.137,0l.179,0h16.2c1.047,0,1.436.385,1.437,1.42,0,.314,0,.628,0,.953ZM2.027,4.01H19.988V3.842c0-.324,0-.638,0-.952,0-.718-.149-.863-.88-.863H2.906l-.179,0c-.035,0-.07,0-.1,0a.566.566,0,0,0-.59.57c-.012.38-.009.757-.006,1.156Q2.026,3.881,2.027,4.01Z" transform="translate(10689 -9141.5)" fill="#fff"/>
      <path id="Path_23326" data-name="Path 23326" d="M126.844,121.084a5.79,5.79,0,1,1-5.791,5.777,5.8,5.8,0,0,1,5.791-5.777m-4.074,5.754A4.072,4.072,0,1,0,126.9,122.8a4.08,4.08,0,0,0-4.129,4.036" transform="translate(10578.354 -9252.175)" fill="#fff"/>
      <path id="Path_23326_-_Outline" data-name="Path 23326 - Outline" d="M126.861,132.971h-.016a6.081,6.081,0,1,1,.016,0Zm.011-11.58a5.511,5.511,0,0,0-.026,11.022h.014a5.511,5.511,0,1,0,.011-11.022Zm-.019,9.862h-.042a4.351,4.351,0,0,1,.079-8.7h.041a4.351,4.351,0,0,1-.077,8.7Zm.036-8.145a3.794,3.794,0,0,0-.073,7.587h.037a3.794,3.794,0,0,0,.072-7.587Z" transform="translate(10578.324 -9252.203)" fill="#fff"/>
      <path id="Path_23327" data-name="Path 23327" d="M97.865,90.042c.614,0,1.227-.006,1.841,0a.859.859,0,1,1,.01,1.713q-1.862.011-3.724,0a.859.859,0,1,1-.01-1.713c.628-.009,1.256,0,1.884,0" transform="translate(10602.116 -9223.792)" fill="#fff"/>
      <path id="Path_23327_-_Outline" data-name="Path 23327 - Outline" d="M97.893,92.069c-.608,0-1.238,0-1.875-.005a1.137,1.137,0,1,1-.012-2.27c.221,0,.458,0,.746,0l1.131,0h.011l1.117,0c.28,0,.511,0,.727,0a1.137,1.137,0,1,1,.008,2.27C99.144,92.067,98.52,92.069,97.893,92.069Zm-1.141-1.722c-.285,0-.52,0-.738,0a.581.581,0,1,0,.008,1.155c.635,0,1.265.005,1.871.005.626,0,1.248,0,1.85-.006a.581.581,0,1,0-.012-1.155c-.213,0-.442,0-.72,0l-1.117,0h-.011Z" transform="translate(10602.087 -9223.82)" fill="#fff"/>
      <path id="Path_23328" data-name="Path 23328" d="M162.047,160.366c.316,0,.558-.009.8,0a.857.857,0,1,1,.017,1.712c-.252.012-.506,0-.818,0,0,.319.013.587,0,.853a.853.853,0,1,1-1.706-.005c-.015-.255,0-.511,0-.847-.281,0-.531.008-.78,0a.859.859,0,1,1-.016-1.713c.24-.01.481,0,.794,0,0-.287-.008-.538,0-.788a.859.859,0,1,1,1.713,0c.009.239,0,.479,0,.784" transform="translate(10544.006 -9286.525)" fill="#fff"/>
      <path id="Path_23328_-_Outline" data-name="Path 23328 - Outline" d="M161.215,164.1a1.124,1.124,0,0,1-1.129-1.125c-.011-.181-.008-.356-.006-.559q0-.012,0-.024h-.216c-.112,0-.205,0-.292,0a1.137,1.137,0,1,1-.018-2.271c.084,0,.175-.005.285-.005l.24,0c0-.178,0-.347,0-.519a1.136,1.136,0,1,1,2.27,0c.007.167,0,.336,0,.514l.243,0c.111,0,.2,0,.286.005a1.135,1.135,0,1,1,.019,2.269c-.089,0-.185.006-.3.006l-.249,0v.01c0,.2.006.388-.006.579a1.115,1.115,0,0,1-1.106,1.119Zm-.853-2.267h.279v.279c0,.112,0,.215,0,.312,0,.192,0,.357,0,.518a.567.567,0,0,0,.572.6h.015a.569.569,0,0,0,.561-.6c.01-.17.008-.34.005-.537,0-.1,0-.194,0-.3v-.279h.279c.2,0,.367,0,.53,0,.107,0,.194,0,.274-.006.389-.019.624-.231.628-.568s-.236-.569-.644-.586c-.077,0-.16,0-.262,0-.157,0-.326,0-.524,0H161.8v-.279c0-.1,0-.2,0-.284,0-.18,0-.335,0-.489-.016-.412-.232-.658-.577-.659s-.563.245-.579.655c-.006.164,0,.331,0,.509,0,.086,0,.176,0,.268v.279h-.279c-.2,0-.364,0-.521,0-.1,0-.185,0-.261,0-.409.017-.652.235-.648.583a.6.6,0,0,0,.663.573c.08,0,.167,0,.272,0C160.023,161.835,160.187,161.832,160.362,161.832Z" transform="translate(10543.978 -9286.554)" fill="#fff"/>
    </g>
  </g>
</svg>
