<svg xmlns="http://www.w3.org/2000/svg" width="46" height="46" viewBox="0 0 46 46">
  <g id="Group_9970" data-name="Group 9970" transform="translate(-480 -260)">
    <rect id="Rectangle_3867" data-name="Rectangle 3867" width="46" height="46" rx="5" transform="translate(480 260)" fill="#51ab1d"/>
    <path id="Path_23379" data-name="Path 23379" d="M12.748,24.389a1.788,1.788,0,0,1-1.767-2.047l.423-2.869H3.318A3.322,3.322,0,0,1,0,16.155V3.318A3.322,3.322,0,0,1,3.318,0h19a3.322,3.322,0,0,1,3.318,3.318V16.155a3.322,3.322,0,0,1-3.318,3.318H19.7l-5.864,4.541a1.78,1.78,0,0,1-1.092.375m-9.43-21.7a.627.627,0,0,0-.626.626V16.155a.627.627,0,0,0,.626.626h11.2l-.55,3.724,4.81-3.724h3.531a.627.627,0,0,0,.626-.626V3.318a.627.627,0,0,0-.626-.626Z" transform="translate(490.473 271.455)" fill="#fff"/>
  </g>
</svg>
