<svg xmlns="http://www.w3.org/2000/svg" width="23.172" height="28.312" viewBox="0 0 23.172 28.312"><g transform="translate(10896 -657.999)"><path d="M31.294,72.7c0,2.232.006,4.464,0,6.7a4.99,4.99,0,0,1-5.205,5.2q-5.1.011-10.194,0a4.983,4.983,0,0,1-5.179-5.16q-.014-6.907,0-13.814c0-.141,0-.282.01-.422a1.234,1.234,0,0,1,1.217-1.179,1.267,1.267,0,0,1,1.33,1.133,5.194,5.194,0,0,1,.011.6q0,6.786,0,13.572a2.478,2.478,0,0,0,2.7,2.7q5.037,0,10.074,0a2.472,2.472,0,0,0,2.674-2.663q0-6.877.008-13.753a2.346,2.346,0,0,1,.166-.932,1.242,1.242,0,0,1,1.431-.629,1.226,1.226,0,0,1,.954,1.234c.017,1.508.008,3.016.009,4.524q0,1.448,0,2.9" transform="translate(-10905.417 601.719)" fill="#72bb48"/><path d="M16.747,3.863h4c.4,0,.805-.014,1.206.01a1.258,1.258,0,0,1,1.221,1.246A1.294,1.294,0,0,1,22,6.423a3.959,3.959,0,0,1-.422.008H1.614c-.121,0-.242,0-.362,0A1.3,1.3,0,0,1,0,5.138,1.245,1.245,0,0,1,1.263,3.874C2.71,3.851,4.157,3.864,5.6,3.863h.82c0-.736,0-1.429,0-2.122C6.426.408,6.825,0,8.139,0Q11.667,0,15.2,0c1.081,0,1.541.463,1.551,1.539.007.742,0,1.484,0,2.321m-7.7-.04h5.057V2.612H9.052Z" transform="translate(-10896 658)" fill="#72bb48"/><path d="M66.541,91.073c0,1.447.006,2.893,0,4.34a1.292,1.292,0,0,1-1.26,1.455,1.311,1.311,0,0,1-1.3-1.48q-.006-4.31,0-8.62a1.314,1.314,0,0,1,1.3-1.485,1.29,1.29,0,0,1,1.265,1.45c.008,1.447,0,2.893,0,4.34" transform="translate(-10952.251 583.009)" fill="#72bb48"/><path d="M109.287,91.069c0,1.487.008,2.974,0,4.461a1.294,1.294,0,0,1-1.027,1.311,1.253,1.253,0,0,1-1.4-.7,1.786,1.786,0,0,1-.133-.7q-.013-4.37,0-8.74a1.281,1.281,0,0,1,1.29-1.424,1.309,1.309,0,0,1,1.272,1.451c.006,1.447,0,2.893,0,4.34" transform="translate(-10989.838 583.014)" fill="#72bb48"/></g></svg>