<svg xmlns="http://www.w3.org/2000/svg" width="19.324" height="19.317" viewBox="0 0 19.324 19.317">
  <path id="Path_23336" data-name="Path 23336" d="M161.132,5.746a5.017,5.017,0,0,0-7.045-.012l-8.824,8.824a6.8,6.8,0,0,0-2,4.831v2.92a1.3,1.3,0,0,0,1.3,1.3h2.92a6.8,6.8,0,0,0,4.832-2l8.813-8.813A5,5,0,0,0,161.132,5.746ZM150.478,19.77a4.212,4.212,0,0,1-2.99,1.236h-1.616V19.39a4.211,4.211,0,0,1,1.234-2.989l5.817-5.817,3.371,3.371Zm8.81-8.81-1.151,1.151L154.767,8.74l1.151-1.151a2.383,2.383,0,0,1,3.371,3.371Z" transform="translate(-143.265 -4.296)" fill="#72bb48"/>
</svg>
