<svg xmlns="http://www.w3.org/2000/svg" xmlns:xlink="http://www.w3.org/1999/xlink" width="40" height="40" viewBox="0 0 40 40">
  <defs>
    <clipPath id="clip-path">
      <rect id="Rectangle_3898" data-name="Rectangle 3898" width="40" height="40" fill="none"/>
    </clipPath>
  </defs>
  <g id="Group_9480" data-name="Group 9480" transform="translate(-1471.965 -398)">
    <g id="Group_9479" data-name="Group 9479" transform="translate(1471.965 398)">
      <g id="Group_9478" data-name="Group 9478" clip-path="url(#clip-path)">
        <path id="Path_23308" data-name="Path 23308" d="M36.724,157.488c-4.236.008-8.472.043-12.708.01a2.925,2.925,0,0,1-2.722-3.2q-.013-7.054,0-14.108c0-.312,0-.623-.007-.935l15.432.006.029-.015q-.01,9.122-.02,18.244" transform="translate(-17.96 -117.513)" fill="#b72929"/>
        <path id="Path_23309" data-name="Path 23309" d="M151.471,139.237q0,7.4,0,14.8c0,2.355-1.121,3.466-3.5,3.463q-5.962-.009-11.923-.025,0-.936,0-1.872-.012-8.187-.025-16.375l.033.015Z" transform="translate(-114.786 -117.502)" fill="#d22f2f"/>
        <path id="Path_23310" data-name="Path 23310" d="M18.754,84.986,3.323,84.98a3.1,3.1,0,0,1-3.31-3.529c.09-1.163.011-2.338.017-3.507a2.875,2.875,0,0,1,2.991-3c2.21-.024,4.42,0,6.628,0,.249.056.5.109.751.168,1.832.432,3.657.9,5.5,1.282.922.191,1.877.223,2.856.331Z" transform="translate(0 -63.241)" fill="#d33a30"/>
        <path id="Path_23311" data-name="Path 23311" d="M151.5,85.047l-15.415.009c0-2.495.025-4.99-.027-7.483-.015-.709.264-.89.881-.93a19.94,19.94,0,0,0,2.935-.295c1.743-.378,3.46-.879,5.188-1.329,2.205,0,4.41,0,6.616.011a2.907,2.907,0,0,1,3.135,3.161c0,1.089,0,2.178,0,3.267,0,2.391-.939,3.407-3.313,3.588" transform="translate(-114.818 -63.312)" fill="#f34437"/>
        <path id="Path_23312" data-name="Path 23312" d="M36.728,21.755V13.5c-.979-.108-1.934-.14-2.856-.331-1.843-.381-3.667-.85-5.5-1.282-.25-.059-.5-.112-.751-.168-.3-.187-.6-.394-.915-.558a11.138,11.138,0,0,1-4.331-3.6C21.334,6,20.856,4.333,21.824,2.575A5.154,5.154,0,0,1,26.311.058C31.8-.39,35.3,2.383,37.661,7.027c.105.207.215.413.322.619q0,7.047.007,14.095H36.757ZM36.408,10.9A12.475,12.475,0,0,0,32.3,4.105a7.616,7.616,0,0,0-6.7-1.373c-1.74.409-2.253,1.663-1.294,3.175a7.171,7.171,0,0,0,1.724,1.875c3.012,2.246,6.53,2.882,10.38,3.114" transform="translate(-17.973 -0.009)" fill="#dda809"/>
        <path id="Path_23313" data-name="Path 23313" d="M128.166,21.732q0-7.048-.007-14.095a36.96,36.96,0,0,1,2.124-3.432A10.253,10.253,0,0,1,140.912.224a4.406,4.406,0,0,1,3.874,3.828,4.864,4.864,0,0,1-.9,3.313,11.3,11.3,0,0,1-4.674,3.893c-.276.14-.543.3-.815.45-1.729.449-3.446.95-5.189,1.329a19.962,19.962,0,0,1-2.935.295c-.617.04-.9.221-.881.93.052,2.494.024,4.989.027,7.483l-.033-.015-1.219.01ZM129.744,10.9c4.144-.291,7.983-.976,11.117-3.753a5.22,5.22,0,0,0,.982-1.2c.948-1.57.462-2.817-1.32-3.233a7.67,7.67,0,0,0-6.582,1.3,11.359,11.359,0,0,0-3.747,5.44c-.158.426-.272.869-.45,1.443" transform="translate(-108.15 -0.001)" fill="#fec10a"/>
        <path id="Path_23314" data-name="Path 23314" d="M120.2,139.244h1.233l0,.007q0,9.118-.005,18.236H120.18q.01-9.122.02-18.244" transform="translate(-101.416 -117.513)" fill="#dd7c00"/>
        <path id="Path_23315" data-name="Path 23315" d="M128.18,157.476q0-9.118.006-18.236l1.219-.01q.013,8.187.025,16.375,0,.936,0,1.871H128.18" transform="translate(-108.167 -117.501)" fill="#fe8e00"/>
      </g>
    </g>
  </g>
</svg>
