<svg xmlns="http://www.w3.org/2000/svg" xmlns:xlink="http://www.w3.org/1999/xlink" width="40.025" height="40.042" viewBox="0 0 40.025 40.042">
  <defs>
    <clipPath id="clip-path">
      <rect id="Rectangle_3964" data-name="Rectangle 3964" width="40.025" height="40.042" transform="translate(0 0)" fill="none"/>
    </clipPath>
  </defs>
  <g id="Group_9638" data-name="Group 9638" transform="translate(-1472 -398)">
    <g id="Group_9640" data-name="Group 9640" transform="translate(1472 398)">
      <g id="Group_9639" data-name="Group 9639" clip-path="url(#clip-path)">
        <path id="Path_23390" data-name="Path 23390" d="M18.782,40.018c-4.236.008-8.472.043-12.708.01A2.924,2.924,0,0,1,3.345,36.92c0-.031,0-.061.007-.092q-.014-7.054,0-14.108c0-.312,0-.623-.007-.935l15.432.006.029-.015q-.01,9.122-.02,18.244" fill="#282e8b"/>
        <path id="Path_23391" data-name="Path 23391" d="M36.7,21.778v14.8c0,2.355-1.121,3.466-3.5,3.463q-5.962-.009-11.923-.025V38.144q-.012-8.187-.025-16.375l.033.015Z" fill="#00b7ff"/>
        <path id="Path_23392" data-name="Path 23392" d="M18.772,21.788,3.341,21.782A3.1,3.1,0,0,1,.009,18.933a3.156,3.156,0,0,1,.022-.68c.09-1.163.011-2.338.017-3.507a2.876,2.876,0,0,1,2.745-3q.123,0,.246,0c2.21-.024,4.42,0,6.628,0,.249.056.5.109.751.168,1.832.432,3.657.9,5.5,1.282.922.191,1.877.223,2.856.331Z" fill="#00b7ff"/>
        <path id="Path_23393" data-name="Path 23393" d="M36.7,21.778l-15.415.009c0-2.5.025-4.99-.027-7.483-.015-.709.264-.89.881-.93a19.938,19.938,0,0,0,2.935-.295c1.743-.378,3.46-.879,5.188-1.329q3.307,0,6.616.011a2.907,2.907,0,0,1,3.135,3.161v3.267c0,2.391-.939,3.407-3.313,3.588" fill="#141967"/>
        <path id="Path_23394" data-name="Path 23394" d="M18.773,21.789V13.534c-.979-.108-1.934-.14-2.856-.331-1.843-.381-3.667-.85-5.5-1.282-.25-.059-.5-.112-.751-.168-.3-.187-.6-.394-.915-.558a11.137,11.137,0,0,1-4.331-3.6C3.379,6.034,2.9,4.367,3.869,2.609A5.154,5.154,0,0,1,8.356.092c5.489-.448,8.989,2.325,11.35,6.969.105.207.215.413.322.619q0,7.047.007,14.095H18.8Zm-.32-10.855a12.475,12.475,0,0,0-4.108-6.8,7.617,7.617,0,0,0-6.7-1.373c-1.74.409-2.253,1.663-1.294,3.175A7.163,7.163,0,0,0,8.075,7.816c3.012,2.246,6.53,2.882,10.38,3.114" fill="#75dcfc"/>
        <path id="Path_23395" data-name="Path 23395" d="M20.034,21.774q0-7.048-.007-14.1a36.882,36.882,0,0,1,2.124-3.432A10.253,10.253,0,0,1,32.78.266a4.406,4.406,0,0,1,3.874,3.828,4.86,4.86,0,0,1-.9,3.313A11.3,11.3,0,0,1,31.08,11.3c-.276.14-.543.3-.815.45-1.729.449-3.446.95-5.189,1.329a19.938,19.938,0,0,1-2.935.295c-.617.04-.9.221-.881.93.052,2.494.024,4.989.027,7.483l-.033-.015-1.219.01Zm1.578-10.832c4.144-.291,7.983-.976,11.117-3.753a5.228,5.228,0,0,0,.982-1.2c.948-1.57.462-2.817-1.32-3.233a7.67,7.67,0,0,0-6.582,1.3A11.366,11.366,0,0,0,22.062,9.5c-.158.426-.272.869-.45,1.443" fill="#00b7ff"/>
        <path id="Path_23396" data-name="Path 23396" d="M18.8,21.774h1.233v.007q0,9.119,0,18.236H18.782q.01-9.121.02-18.244" fill="#75dcfc"/>
        <path id="Path_23397" data-name="Path 23397" d="M20.031,40.018q0-9.119.006-18.236l1.219-.01q.013,8.187.025,16.375v1.871Z" fill="#00b7ff"/>
      </g>
    </g>
  </g>
</svg>
