<svg xmlns="http://www.w3.org/2000/svg" xmlns:xlink="http://www.w3.org/1999/xlink" width="21.635" height="21.635" viewBox="0 0 21.635 21.635"><defs><clipPath id="a"><rect width="21.635" height="21.635" fill="#51ab1d"/></clipPath></defs><g clip-path="url(#a)"><path d="M10.809,0A10.817,10.817,0,1,0,21.635,10.83,10.834,10.834,0,0,0,10.809,0M10.12,1.536V6.95h-3.4c-.038-1.876,1.987-5.121,3.4-5.413m0,6.825v4.915H6.425A17.686,17.686,0,0,1,6.41,8.362ZM7.17,2.087c-.416.856-.864,1.676-1.216,2.535-.27.659-.412,1.371-.63,2.053-.037.117-.17.289-.262.291-.938.022-1.877.013-2.9.013A9.582,9.582,0,0,1,7.17,2.087M1.606,13.007a9.355,9.355,0,0,1,.015-4.388.422.422,0,0,1,.286-.269c1.024-.02,2.049-.012,3.053-.012V13.3H3.288c-.436,0-.873-.01-1.309,0a.319.319,0,0,1-.373-.3m.557,1.647c1.016,0,1.93-.007,2.844.009a.385.385,0,0,1,.3.2,13.729,13.729,0,0,0,1.9,4.656,9.381,9.381,0,0,1-5.041-4.865m7.96,5.559a4.619,4.619,0,0,1-1-.681A11.415,11.415,0,0,1,7.653,17.5a26.706,26.706,0,0,1-1.084-2.806h3.553ZM19.472,6.981c-.7,0-1.322,0-1.948,0-.365,0-.828.116-1.068-.061s-.24-.652-.338-1a13.4,13.4,0,0,0-1.685-3.8,9.375,9.375,0,0,1,5.039,4.863M15.221,13.27H11.514V8.362h3.7a17.843,17.843,0,0,1,0,4.909M11.511,1.413a10.636,10.636,0,0,1,1.043.713A6.575,6.575,0,0,1,14.29,4.78c.267.689.479,1.4.748,2.2-1.154,0-2.191,0-3.227,0a2.784,2.784,0,0,1-.3-.033Zm0,18.711V14.682h3.409c-.034,1.947-1.9,4.965-3.409,5.443m2.918-.557c.006-.076,0-.117.013-.14a12.092,12.092,0,0,0,1.828-4.369c.076-.341.216-.418.535-.411.856.02,1.714.007,2.666.007a9.632,9.632,0,0,1-5.041,4.913m5.323-6.281c-1.037.018-2.074.011-3.078.011V8.338c1.007,0,2.045-.007,3.082.012.089,0,.23.153.255.257a9.186,9.186,0,0,1,0,4.427c-.025.1-.168.251-.259.253" transform="translate(0 0)" fill="#51ab1d"/></g></svg>