<svg xmlns="http://www.w3.org/2000/svg" width="27.674" height="27.134" viewBox="0 0 27.674 27.134">
  <g id="Group_9942" data-name="Group 9942" transform="translate(15251 12998)">
    <path id="Path_58015" data-name="Path 58015" d="M24.581,32.412a8.279,8.279,0,0,0-3.217-1.535,10.166,10.166,0,0,0-2.326-.256,16.216,16.216,0,0,0-3.77.5c-1.037.247-2.047.512-3.112.791-.32.087-.644.169-.969.256L9.994,27.728l-.608-2.28q.185.055.356.123a1.747,1.747,0,0,0,.626.142,1.2,1.2,0,0,0,.969-.576,2.143,2.143,0,0,1,1.755-1.015,2.769,2.769,0,0,1,1.065.238,1.714,1.714,0,0,0,.644.151,1.105,1.105,0,0,0,.768-.311,1.227,1.227,0,0,0,.279-1.334,7.986,7.986,0,0,0-4.858-5.283A7.59,7.59,0,0,0,8.1,17.044c-.306,0-.626.014-.951.046a1.225,1.225,0,0,0-.032-.123c-.059-.219-.119-.439-.187-.663a1.218,1.218,0,0,0-1.142-.937A1.178,1.178,0,0,0,4.684,16.93c.064.256.133.516.2.772a1.243,1.243,0,0,1-.114.05A8.085,8.085,0,0,0,.219,26.984a1.265,1.265,0,0,0,.964,1.1,1.494,1.494,0,0,0,.242.023,1.309,1.309,0,0,0,1.065-.663A2.109,2.109,0,0,1,4.222,26.5a2.36,2.36,0,0,1,.941.2,1.979,1.979,0,0,0,.759.2c.466,0,.74-.3,1.051-.695.046-.059.1-.114.151-.174l1.787,6.677a14.4,14.4,0,0,1-3.327.411,9.185,9.185,0,0,1-3.834-.754,1.5,1.5,0,0,0-.608-.137A1.114,1.114,0,0,0,.11,32.92a1.119,1.119,0,0,0-.014.937,1.21,1.21,0,0,0,.768.649l.375.119a18.644,18.644,0,0,0,2.724.722,11.106,11.106,0,0,0,1.723.133,19.777,19.777,0,0,0,4.533-.649c.836-.2,1.682-.416,2.5-.626,1.426-.366,2.9-.745,4.355-1.042a10.267,10.267,0,0,1,2.038-.219A6.513,6.513,0,0,1,23.219,34.3a1.187,1.187,0,0,0,.731.256,1.167,1.167,0,0,0,.631-2.139M2.326,24.6a6.054,6.054,0,0,1,1.851-3.66,9.873,9.873,0,0,0,.009,3.217,4.8,4.8,0,0,0-1.86.443m4.14-1.019a6.858,6.858,0,0,1,.306-3.377,6.816,6.816,0,0,1,1.96,2.778,4.072,4.072,0,0,0-2.267.6M12.782,21.8a4.617,4.617,0,0,0-1.791.548,9.714,9.714,0,0,0-1.613-2.81,5.9,5.9,0,0,1,3.4,2.262" transform="translate(-15251 -13006.345)" fill="#8b8b8b"/>
    <path id="Path_58016" data-name="Path 58016" d="M42.748,8.355h-.027a2.826,2.826,0,0,0-1.985.839,2.775,2.775,0,0,0-.817,1.99,2.807,2.807,0,0,0,5.614-.013,2.846,2.846,0,0,0-2.784-2.816m-.018,3.308h-.022a.5.5,0,0,1,.013-1h.023a.547.547,0,0,1,.352.171.481.481,0,0,1,.131.347.524.524,0,0,1-.5.483" transform="translate(-15272.676 -13002.537)" fill="#8b8b8b"/>
    <path id="Path_58017" data-name="Path 58017" d="M34.641,13.11a1.169,1.169,0,0,0-1.167-1.167h-.742a1.167,1.167,0,0,0,0,2.334h.742a1.169,1.169,0,0,0,1.167-1.167" transform="translate(-15268.141 -13004.485)" fill="#8b8b8b"/>
    <path id="Path_58018" data-name="Path 58018" d="M55.735,11.943h-.742a1.167,1.167,0,0,0,0,2.335h.742a1.167,1.167,0,0,0,0-2.335" transform="translate(-15280.229 -13004.485)" fill="#8b8b8b"/>
    <path id="Path_58019" data-name="Path 58019" d="M44.674,3.076A1.169,1.169,0,0,0,45.841,1.91V1.168a1.167,1.167,0,1,0-2.334,0V1.91a1.169,1.169,0,0,0,1.167,1.167" transform="translate(-15274.625 -12998)" fill="#8b8b8b"/>
    <path id="Path_58020" data-name="Path 58020" d="M44.674,22.261a1.169,1.169,0,0,0-1.167,1.167v.742a1.167,1.167,0,1,0,2.334,0v-.742a1.169,1.169,0,0,0-1.167-1.167" transform="translate(-15274.625 -13010.088)" fill="#8b8b8b"/>
    <path id="Path_58021" data-name="Path 58021" d="M37.687,6.123a1.154,1.154,0,0,0,0-1.63l-.518-.518a1.153,1.153,0,1,0-1.63,1.63l.518.518a1.154,1.154,0,0,0,1.63,0" transform="translate(-15270.115 -12999.976)" fill="#8b8b8b"/>
    <path id="Path_58022" data-name="Path 58022" d="M53.23,20.036l-.518-.518a1.153,1.153,0,0,0-1.63,1.63l.518.518a1.153,1.153,0,1,0,1.63-1.63" transform="translate(-15278.556 -13008.416)" fill="#8b8b8b"/>
    <path id="Path_58023" data-name="Path 58023" d="M51.083,6.123a1.154,1.154,0,0,0,1.63,0l.518-.518a1.153,1.153,0,1,0-1.63-1.63l-.518.518a1.154,1.154,0,0,0,0,1.63" transform="translate(-15278.556 -12999.976)" fill="#8b8b8b"/>
    <path id="Path_58024" data-name="Path 58024" d="M37.687,19.518a1.154,1.154,0,0,0-1.63,0l-.518.518a1.153,1.153,0,0,0,1.63,1.63l.518-.518a1.154,1.154,0,0,0,0-1.63" transform="translate(-15270.115 -13008.416)" fill="#8b8b8b"/>
  </g>
</svg>
