<svg xmlns="http://www.w3.org/2000/svg" width="30.778" height="30.177" viewBox="0 0 30.778 30.177">
  <g id="Group_9941" data-name="Group 9941" transform="translate(15251 12998)">
    <path id="Path_58015" data-name="Path 58015" d="M27.338,34.324a9.208,9.208,0,0,0-3.578-1.708,11.306,11.306,0,0,0-2.587-.285,18.034,18.034,0,0,0-4.193.559c-1.154.274-2.277.569-3.461.879-.356.1-.717.188-1.077.285l-1.326-4.94-.676-2.536q.206.061.4.137a1.943,1.943,0,0,0,.7.158,1.339,1.339,0,0,0,1.077-.64A2.384,2.384,0,0,1,14.561,25.1a3.08,3.08,0,0,1,1.184.264,1.906,1.906,0,0,0,.717.168,1.229,1.229,0,0,0,.854-.346,1.364,1.364,0,0,0,.31-1.484,8.882,8.882,0,0,0-5.4-5.875,8.441,8.441,0,0,0-3.212-.6c-.341,0-.7.015-1.057.051a1.363,1.363,0,0,0-.036-.137c-.066-.244-.132-.488-.208-.737a1.355,1.355,0,0,0-1.271-1.042,1.311,1.311,0,0,0-1.23,1.738c.071.285.147.574.224.859a1.382,1.382,0,0,1-.127.056A8.991,8.991,0,0,0,.244,28.286a1.407,1.407,0,0,0,1.072,1.22,1.662,1.662,0,0,0,.269.025,1.456,1.456,0,0,0,1.184-.737A2.345,2.345,0,0,1,4.7,27.753a2.625,2.625,0,0,1,1.047.224,2.2,2.2,0,0,0,.844.224c.518,0,.823-.335,1.169-.773.051-.066.107-.127.168-.193L9.91,34.66a16.018,16.018,0,0,1-3.7.457,10.215,10.215,0,0,1-4.264-.839,1.668,1.668,0,0,0-.676-.152,1.239,1.239,0,0,0-1.149.762A1.245,1.245,0,0,0,.107,35.93a1.346,1.346,0,0,0,.854.722l.417.132a20.735,20.735,0,0,0,3.029.8,12.352,12.352,0,0,0,1.916.147,22,22,0,0,0,5.042-.722c.93-.224,1.87-.462,2.78-.7,1.586-.407,3.222-.828,4.843-1.159a11.419,11.419,0,0,1,2.267-.244,7.243,7.243,0,0,1,4.569,1.5,1.32,1.32,0,0,0,.813.285,1.3,1.3,0,0,0,.7-2.379M2.587,25.638a6.733,6.733,0,0,1,2.058-4.071,10.98,10.98,0,0,0,.01,3.578,5.333,5.333,0,0,0-2.069.493m4.6-1.133a7.628,7.628,0,0,1,.341-3.756,7.58,7.58,0,0,1,2.18,3.09,4.529,4.529,0,0,0-2.521.666m7.024-1.987a5.135,5.135,0,0,0-1.992.61A10.8,10.8,0,0,0,10.429,20a6.556,6.556,0,0,1,3.786,2.516" transform="translate(-15251 -13005.558)" fill="#51ab1d"/>
    <path id="Path_58016" data-name="Path 58016" d="M43.066,8.355h-.03a3.143,3.143,0,0,0-2.208.934,3.086,3.086,0,0,0-.909,2.213,3.122,3.122,0,0,0,6.243-.015,3.165,3.165,0,0,0-3.1-3.132m-.02,3.679h-.025a.557.557,0,0,1,.015-1.114h.025a.608.608,0,0,1,.391.191.535.535,0,0,1,.145.386.583.583,0,0,1-.552.537" transform="translate(-15270.63 -13002.109)" fill="#51ab1d"/>
    <path id="Path_58017" data-name="Path 58017" d="M34.986,13.241a1.3,1.3,0,0,0-1.3-1.3h-.825a1.3,1.3,0,1,0,0,2.6h.825a1.3,1.3,0,0,0,1.3-1.3" transform="translate(-15266.522 -13003.873)" fill="#51ab1d"/>
    <path id="Path_58018" data-name="Path 58018" d="M55.949,11.943h-.825a1.3,1.3,0,0,0,0,2.6h.825a1.3,1.3,0,0,0,0-2.6" transform="translate(-15277.47 -13003.873)" fill="#51ab1d"/>
    <path id="Path_58019" data-name="Path 58019" d="M44.805,3.421a1.3,1.3,0,0,0,1.3-1.3V1.3a1.3,1.3,0,1,0-2.6,0v.825a1.3,1.3,0,0,0,1.3,1.3" transform="translate(-15272.396 -12998)" fill="#51ab1d"/>
    <path id="Path_58020" data-name="Path 58020" d="M44.805,22.261a1.3,1.3,0,0,0-1.3,1.3v.825a1.3,1.3,0,1,0,2.6,0v-.825a1.3,1.3,0,0,0-1.3-1.3" transform="translate(-15272.396 -13008.947)" fill="#51ab1d"/>
    <path id="Path_58021" data-name="Path 58021" d="M37.966,6.4a1.284,1.284,0,0,0,0-1.813l-.576-.576a1.282,1.282,0,0,0-1.813,1.813l.576.576a1.284,1.284,0,0,0,1.813,0" transform="translate(-15268.312 -12999.789)" fill="#51ab1d"/>
    <path id="Path_58022" data-name="Path 58022" d="M53.509,20.132l-.576-.576a1.282,1.282,0,1,0-1.813,1.813l.576.576a1.282,1.282,0,0,0,1.813-1.813" transform="translate(-15275.955 -13007.433)" fill="#51ab1d"/>
    <path id="Path_58023" data-name="Path 58023" d="M51.12,6.4a1.284,1.284,0,0,0,1.813,0l.576-.576A1.282,1.282,0,1,0,51.7,4.012l-.576.576a1.284,1.284,0,0,0,0,1.813" transform="translate(-15275.955 -12999.789)" fill="#51ab1d"/>
    <path id="Path_58024" data-name="Path 58024" d="M37.966,19.555a1.284,1.284,0,0,0-1.813,0l-.576.576a1.282,1.282,0,1,0,1.813,1.813l.576-.576a1.284,1.284,0,0,0,0-1.813" transform="translate(-15268.312 -13007.433)" fill="#51ab1d"/>
  </g>
</svg>
