<svg xmlns="http://www.w3.org/2000/svg" width="25.472" height="24" viewBox="0 0 25.472 24">
  <g id="Group_9750" data-name="Group 9750" transform="translate(12514 10951)">
    <path id="Path_23439" data-name="Path 23439" d="M18.874,0H6.6A6.6,6.6,0,0,0,0,6.6V17.4A6.6,6.6,0,0,0,6.6,24H23.86a1.612,1.612,0,0,0,1.612-1.612V6.6a6.6,6.6,0,0,0-6.6-6.6M2.35,5.942A1.608,1.608,0,0,1,3.958,4.335H21.514a1.607,1.607,0,0,1,1.608,1.608v.091H2.35Zm0,.77H23.122v3.361H2.35ZM3.958,17.963A1.607,1.607,0,0,1,2.35,16.355v-5.6H23.122v2.933a5.507,5.507,0,0,0-9.48,3.814c0,.156.007.31.019.463Zm15.191,3.911A4.38,4.38,0,0,1,14.8,17.963a4.185,4.185,0,0,1-.025-.463,4.375,4.375,0,1,1,4.376,4.374" transform="translate(-12514 -10951)" fill="#51ab1d"/>
    <rect id="Rectangle_3987" data-name="Rectangle 3987" width="0.753" height="2.431" transform="translate(-12509.558 -10943.822)" fill="#51ab1d"/>
    <path id="Path_23440" data-name="Path 23440" d="M52.4,64.538a.606.606,0,0,0,.262-.163A.546.546,0,0,0,52.8,64a.566.566,0,0,0-.189-.431.765.765,0,0,0-.539-.173H50.66v2.431h1.3c.055,0,.168-.011.336-.033a.8.8,0,0,0,.285-.079.659.659,0,0,0,.241-.239.672.672,0,0,0,.087-.341.592.592,0,0,0-.123-.385.675.675,0,0,0-.385-.216m-.98-.645h.332a.374.374,0,0,1,.24.059.211.211,0,0,1,.068.166.22.22,0,0,1-.068.174.376.376,0,0,1-.246.061h-.326Zm.657,1.347a.425.425,0,0,1-.274.069h-.383v-.492H51.8a.448.448,0,0,1,.276.065.217.217,0,0,1,.078.174.232.232,0,0,1-.079.185" transform="translate(-12558.925 -11007.223)" fill="#51ab1d"/>
    <path id="Path_23441" data-name="Path 23441" d="M72.234,63.4l-.914,2.431h.766l.119-.4h.852l.122.4h.787L73.053,63.4Zm.135,1.5.266-.874.268.874Z" transform="translate(-12577.246 -11007.223)" fill="#51ab1d"/>
    <path id="Path_23442" data-name="Path 23442" d="M98.467,64.745,97.552,63.4h-.7V65.83h.706V64.5l.91,1.335h.709V63.4h-.709Z" transform="translate(-12599.885 -11007.223)" fill="#51ab1d"/>
    <path id="Path_23443" data-name="Path 23443" d="M42.888,118.16a1.406,1.406,0,0,0-1.116.549,1.413,1.413,0,1,0,0,1.729,1.413,1.413,0,1,0,1.116-2.278m0,2.545a1.132,1.132,0,1,1,1.132-1.132,1.13,1.13,0,0,1-1.132,1.132" transform="translate(-12548.798 -11055.784)" fill="#51ab1d"/>
  </g>
</svg>
