<svg xmlns="http://www.w3.org/2000/svg" width="26.201" height="21.842" viewBox="0 0 26.201 21.842">
  <g id="Group_9751" data-name="Group 9751" transform="translate(8114 8104)">
    <path id="Path_23447" data-name="Path 23447" d="M38.758,138.591c-.63-.016-1.26,0-1.89,0-.6,0-1.192,0-1.788,0a3.1,3.1,0,0,0-3.167,3.635.8.8,0,0,0,.787.736.809.809,0,0,0,.835-.737c.023-.2,0-.408.011-.612a1.349,1.349,0,0,1,1.356-1.375q1.915-.036,3.832,0a1.349,1.349,0,0,1,1.356,1.375c.008.2-.016.412.012.612a.813.813,0,0,0,1.613.051,3.072,3.072,0,0,0-2.955-3.683" transform="translate(-8142.614 -8228.403)" fill="#72bb48"/>
    <path id="Path_23448" data-name="Path 23448" d="M56.2,80.1a2.728,2.728,0,1,0-2.744-2.712A2.736,2.736,0,0,0,56.2,80.1m-.049-3.816a1.117,1.117,0,0,1,1.13,1.079,1.092,1.092,0,0,1-2.184.025,1.12,1.12,0,0,1,1.054-1.1" transform="translate(-8161.983 -8171.01)" fill="#72bb48"/>
    <path id="Path_23449" data-name="Path 23449" d="M156.181,80.011c-1.891,0-3.783,0-5.674,0-.652,0-1.027.3-1.036.805s.384.829,1.062.833c.9.005,1.806,0,2.709,0,.937,0,1.874.005,2.811,0a1.445,1.445,0,0,0,.6-.094.744.744,0,0,0,.441-.886.83.83,0,0,0-.911-.656" transform="translate(-8248.177 -8175.824)" fill="#72bb48"/>
    <path id="Path_23450" data-name="Path 23450" d="M156.2,122.606q-2.889-.012-5.778,0a.851.851,0,0,0-.941.8c-.015.491.362.83.95.834.955.006,1.909,0,2.864,0,.972,0,1.943.006,2.915,0a.817.817,0,0,0,.912-.815.833.833,0,0,0-.92-.818" transform="translate(-8248.184 -8214.056)" fill="#72bb48"/>
    <path id="Path_23451" data-name="Path 23451" d="M156.156,165.415c-.955-.005-1.909,0-2.864,0-.938,0-1.875,0-2.813,0-.635,0-1.016.324-1,.833.014.48.4.8.992.8q2.838.007,5.676,0c.6,0,.969-.327.972-.819s-.361-.812-.963-.816" transform="translate(-8248.184 -8252.487)" fill="#72bb48"/>
    <path id="Path_23452" data-name="Path 23452" d="M26.195,5.224a2.976,2.976,0,0,0-3.054-3.03c-1.688-.009-3.375,0-5.064,0H17.7V1.254A1.254,1.254,0,0,0,16.444,0H9.757A1.254,1.254,0,0,0,8.5,1.254v.938c-1.656,0-3.77-.006-5.409,0A2.982,2.982,0,0,0,0,5.291Q0,12.017,0,18.742a2.994,2.994,0,0,0,3.054,3.093q10.05.014,20.1,0a2.985,2.985,0,0,0,3.037-3.057q.012-6.776,0-13.553M9.731,1.254a.026.026,0,0,1,.026-.026h6.686a.026.026,0,0,1,.026.026v3.5a.026.026,0,0,1-.026.026H9.757a.026.026,0,0,1-.026-.026ZM24.554,18.8a1.359,1.359,0,0,1-1.494,1.4c-1.927.008-3.852,0-5.779,0H3.37c-1.247,0-1.728-.482-1.728-1.731q0-6.5,0-12.99c0-1.152.494-1.646,1.644-1.646,1.563,0,3.558,0,5.218,0v.924A1.254,1.254,0,0,0,9.757,6.009h6.686A1.254,1.254,0,0,0,17.7,4.755V3.831H21.3c.63,0,1.262-.01,1.892,0A1.32,1.32,0,0,1,24.553,5.2q.016,6.8,0,13.6" transform="translate(-8114 -8104)" fill="#72bb48"/>
  </g>
</svg>
