<svg id="Group_9469" data-name="Group 9469" xmlns="http://www.w3.org/2000/svg" xmlns:xlink="http://www.w3.org/1999/xlink" width="24.081" height="17.185" viewBox="0 0 24.081 17.185">
  <defs>
    <clipPath id="clip-path">
      <rect id="Rectangle_3894" data-name="Rectangle 3894" width="24.081" height="17.185" fill="#72bb48"/>
    </clipPath>
  </defs>
  <g id="Group_9468" data-name="Group 9468" clip-path="url(#clip-path)">
    <path id="Path_23306" data-name="Path 23306" d="M12.085,0q4.465,0,8.931,0A2.846,2.846,0,0,1,24.08,3.042c0,4.293,0,6.8,0,11.092a2.847,2.847,0,0,1-3.059,3.049q-8.978,0-17.956,0A2.854,2.854,0,0,1,0,14.092C0,9.815,0,7.324,0,3.047A2.846,2.846,0,0,1,3.06,0q4.512,0,9.025,0m-.046,1.884H3.109c-.907,0-1.225.315-1.225,1.208,0,4.261,0,6.736,0,11,0,.889.323,1.21,1.227,1.21q8.93,0,17.861,0c.9,0,1.226-.322,1.226-1.211,0-4.261,0-6.736,0-11,0-.892-.32-1.206-1.227-1.206h-8.93" transform="translate(0 0)" fill="#72bb48"/>
    <path id="Path_23307" data-name="Path 23307" d="M40.015,38.284h6.261v5.675H40.015Zm4.38,1.882H41.911v1.912h2.484Z" transform="translate(-36.251 -34.683)" fill="#72bb48"/>
    <rect id="Rectangle_3890" data-name="Rectangle 3890" width="8.363" height="1.81" transform="translate(11.955 3.606)" fill="#72bb48"/>
    <rect id="Rectangle_3891" data-name="Rectangle 3891" width="8.355" height="1.837" transform="translate(11.96 7.417)" fill="#72bb48"/>
    <rect id="Rectangle_3892" data-name="Rectangle 3892" width="6.255" height="1.823" transform="translate(3.769 11.758)" fill="#72bb48"/>
    <rect id="Rectangle_3893" data-name="Rectangle 3893" width="8.293" height="1.824" transform="translate(12.023 11.76)" fill="#72bb48"/>
  </g>
</svg>
