<svg xmlns="http://www.w3.org/2000/svg" xmlns:xlink="http://www.w3.org/1999/xlink" width="370.187" height="408.312" viewBox="0 0 370.187 408.312">
  <defs>
    <radialGradient id="radial-gradient" cx="0.5" cy="0.5" r="0.46" gradientTransform="translate(-0.103) scale(1.205 1)" gradientUnits="objectBoundingBox">
      <stop offset="0.01" stop-color="#bcd85f"/>
      <stop offset="1" stop-color="#00823e"/>
    </radialGradient>
    <linearGradient id="linear-gradient" x1="0.237" y1="-0.066" x2="0.869" y2="0.918" gradientTransform="matrix(1, 0, 0, 1, 0, 0)" xlink:href="#radial-gradient"/>
    <linearGradient id="linear-gradient-2" x1="0" y1="0.5" x2="1" y2="0.5" gradientTransform="matrix(1, 0, 0, 1, 0, 0)" xlink:href="#radial-gradient"/>
    <linearGradient id="linear-gradient-3" x1="1" y1="0.5" x2="0" y2="0.5" gradientTransform="matrix(1, 0, 0, 1, 0, 0)" xlink:href="#radial-gradient"/>
  </defs>
  <g id="Logo" transform="translate(0.003)">
    <path id="Path_22203" data-name="Path 22203" d="M211.945,122.67a94.089,94.089,0,0,0-79.682,144.2h0c.924,1.464,1.88,2.9,2.881,4.314a305.08,305.08,0,0,0,75.414,77.379l1.387,1,1.394-1a305.221,305.221,0,0,0,75.4-77.364c1-1.41,1.957-2.851,2.881-4.307h0A94.089,94.089,0,0,0,211.945,122.67ZM177.277,235.325c.077-.154.17-.3.247-.454l34.514-59.56.146.231.532.894,34.09,58.966h-.963Z" transform="translate(-27.052 -28.165)" fill="url(#radial-gradient)"/>
    <path id="Path_22204" data-name="Path 22204" d="M300.962,207.143A42.9,42.9,0,0,1,260.5,240.124h-.709l-34.09-59-.532-.894-.146-.231h0l-.108-.177c-.046-.069-.085-.139-.131-.2a42.533,42.533,0,0,0-13.3-13.289c-.27-.169-.547-.339-.817-.493s-.4-.247-.6-.362c-.408-.231-.832-.47-1.248-.678s-.77-.408-1.186-.609a42.711,42.711,0,0,0-18.135-4.491h-1.256c-.624,0-1.248,0-1.88.046A42.472,42.472,0,0,0,174.37,162.1a.979.979,0,0,1,.216-.185c.254-.223.5-.439.77-.647A77.186,77.186,0,0,1,300.823,206.3C300.87,206.588,300.924,206.866,300.962,207.143Z" transform="translate(-40.038 -32.886)" fill="url(#linear-gradient)"/>
    <path id="Path_22205" data-name="Path 22205" d="M190.088,296.918c.347.339.709.663,1.079.994a77.117,77.117,0,0,1-24.73-130.968.979.979,0,0,1,.216-.185,42.467,42.467,0,0,1,11.772-2.172c.632,0,1.256-.046,1.88-.046h1.256A44.307,44.307,0,0,1,199.671,169c.408.2.77.393,1.186.609s.84.447,1.248.678c.2.116.4.231.6.362s.547.324.817.493a41.023,41.023,0,0,1,13.182,13.1l.123.208c.046.062.085.131.131.2l.108.177h0l-34.5,59.6c-.077.154-.169.3-.247.455s-.285.485-.408.77c-.431.77-.84,1.61-1.21,2.434-.193.408-.37.817-.547,1.225-.347.832-.67,1.656-.955,2.5-.146.416-.285.84-.416,1.256-.27.84-.5,1.687-.716,2.542-.108.416-.208.84-.293,1.271-.185.855-.347,1.71-.47,2.558a42.666,42.666,0,0,0-.3,10.385q.054.77.162,1.5a3.674,3.674,0,0,0,.069.508c.023.162.077.508.108.77.154.94.331,1.88.539,2.8.169.77.362,1.471.562,2.2.116.408.239.809.37,1.225.239.77.5,1.541.77,2.25.154.4.308.77.47,1.186l.47,1.109a42.732,42.732,0,0,0,8.8,12.812C189.595,296.44,189.833,296.679,190.088,296.918Z" transform="translate(-32.105 -37.778)" fill="url(#linear-gradient-2)"/>
    <path id="Path_22206" data-name="Path 22206" d="M305.2,239.117a77.194,77.194,0,0,1-102.987,72.695h0c-.37-.331-.732-.655-1.079-.994s-.493-.478-.732-.716a42.736,42.736,0,0,1-8.8-12.812l-.47-1.109c-.162-.385-.316-.77-.47-1.186-.277-.77-.539-1.495-.77-2.25-.131-.416-.254-.817-.37-1.225-.2-.724-.393-1.456-.562-2.2-.208-.924-.385-1.864-.539-2.8a5.608,5.608,0,0,0-.108-.77c-.039-.27-.046-.339-.069-.508q-.108-.77-.162-1.5a42.665,42.665,0,0,1,.3-10.385c.123-.847.285-1.7.47-2.558.085-.431.185-.855.293-1.271.216-.855.447-1.7.716-2.542.131-.416.27-.84.416-1.256.293-.84.616-1.664.955-2.5.177-.408.354-.817.547-1.225.37-.824.77-1.633,1.209-2.434.123-.254.262-.493.408-.77l68.535.116h1.356a42.958,42.958,0,0,0,40.669-33.836c.046.285.1.562.139.84A76.664,76.664,0,0,1,305.2,239.117Z" transform="translate(-43.145 -51.678)" fill="url(#linear-gradient-3)"/>
    <path id="Path_22207" data-name="Path 22207" d="M293.919,204.314c-2.049-8.559-10.5-30.254-43.689-30.254,0,0,28.7,12.373,30.716,32.958l-11.055,3.49L291.716,227.9,305.961,203.1Z" transform="translate(-57.456 -39.964)" fill="#fff"/>
    <path id="Path_22208" data-name="Path 22208" d="M176.141,197.793c-6.348,6.1-20.762,24.383-3.929,52.98,0,0-3.891-30.993,12.843-43.142l8.605,7.75,3.929-27.611-28.6.3Z" transform="translate(-37.734 -43.112)" fill="#fff"/>
    <path id="Path_22209" data-name="Path 22209" d="M225.211,307.994c8.4,2.658,31.355,6.572,48.427-21.879,0,0-25.369,18.235-44.075,9.368l2.7-11.263-26.14,9.761,13.937,24.961Z" transform="translate(-47.328 -65.257)" fill="#fff"/>
    <rect id="Rectangle_2918" data-name="Rectangle 2918" width="55.307" height="15.385" transform="matrix(0.536, 0.844, -0.844, 0.536, 57.123, 43.333)" fill="#51ab1d"/>
    <path id="Path_22210" data-name="Path 22210" d="M101.151,35.063l12.7,19.992L93.27,68.121l14.345,5.94,13.043-8.282,10.154,15.97,12.981-8.243L114.14,26.82Z" transform="translate(-21.3 -6.158)" fill="#51ab1d"/>
    <path id="Path_22211" data-name="Path 22211" d="M344.17,24.57l.855,14.468L390.07,68.86l6.4-9.669Z" transform="translate(-78.907 -5.641)" fill="#51ab1d"/>
    <path id="Path_22212" data-name="Path 22212" d="M361.036,85.541,380.451,98.4l6.41-9.668L357.77,69.47Z" transform="translate(-82.03 -15.95)" fill="#51ab1d"/>
    <path id="Path_22213" data-name="Path 22213" d="M348.509,55.894l-12.5-8.274L314.85,79.553l.077.046,12.427,8.228,32.619,21.587,6.4-9.661L333.763,78.159Z" transform="translate(-72.175 -10.934)" fill="#51ab1d"/>
    <path id="Path_22214" data-name="Path 22214" d="M192.514,6.817l-4.33.655,1.857,12.4.316-.046a3.143,3.143,0,0,1,3.582,2.619l3.528,22.989a3.143,3.143,0,0,1-2.635,3.582l-14.43,2.2,1.88,12.388,18.451-2.758A15.454,15.454,0,0,0,213.7,43.234L210.133,19.8A15.454,15.454,0,0,0,192.514,6.817ZM173.192,49.189l-3.5-23.012a3.128,3.128,0,0,1,2.619-3.559l14.453-2.2-1.887-12.45-18.49,2.812A15.462,15.462,0,0,0,153.447,28.4l3.567,23.436A15.462,15.462,0,0,0,174.633,64.79l4.33-.655-1.888-12.4-.316.054a3.151,3.151,0,0,1-3.567-2.642Z" transform="translate(-35.076 -1.524)" fill="#51ab1d"/>
    <path id="Path_22215" data-name="Path 22215" d="M53.957,112.934A16.409,16.409,0,0,1,69.95,138.719L45.675,172.378l-9.445-6.795,22.935-31.848a4.784,4.784,0,1,0-7.766-5.585l-4.915,6.818-9.43-6.78,6.217-8.636a16.34,16.34,0,0,1,10.685-6.618Z" transform="translate(-8.204 -25.879)" fill="#51ab1d"/>
    <path id="Path_22216" data-name="Path 22216" d="M27.324,88.24l9.43,6.787L14.712,125.643a4.791,4.791,0,1,0,7.781,5.593L26.8,125.25l9.407,6.779-6.471,9.029A16.416,16.416,0,0,1,3.079,121.891Z" transform="translate(0.117 -20.26)" fill="#51ab1d"/>
    <path id="Path_22217" data-name="Path 22217" d="M301.906,36.833l2.134-10.97a12.9,12.9,0,0,0-10.2-15.146L238.88,0l6.433,14.414,38.6,7.527a4.854,4.854,0,0,1,3.852,5.693l-.254,1.433a4.838,4.838,0,0,1-5.316,3.891,2.963,2.963,0,0,1-.378-.054l-19.684-3.852,5.462,14.214,8.128,21.194,20.03,3.914L287.6,47.164a12.912,12.912,0,0,0,14.306-10.331Z" transform="translate(-54.732)" fill="#51ab1d"/>
    <path id="Path_22218" data-name="Path 22218" d="M373.97,128.24l12.588,16.872,14.2.262,4.607-16.587Z" transform="translate(-85.749 -29.444)" fill="#51ab1d"/>
    <path id="Path_22219" data-name="Path 22219" d="M470.651,146.634,458.324,130.07c-.069-.1-.131-.208-.193-.316L443.9,129.5l-4.622,16.571Z" transform="translate(-100.744 -29.733)" fill="#51ab1d"/>
    <path id="Path_22220" data-name="Path 22220" d="M433.284,119.424l4.669-16.733c-.085-.092-.17-.177-.247-.277L425.38,85.85l-9.245,33.274-4.622,16.571-4.622,16.7,12.588,16.872L428.723,136Z" transform="translate(-93.308 -19.711)" fill="#51ab1d"/>
    <rect id="Rectangle_2919" data-name="Rectangle 2919" width="55.307" height="15.385" transform="matrix(-0.536, -0.844, 0.844, -0.536, 312.895, 364.972)" fill="#51ab1d"/>
    <path id="Path_22221" data-name="Path 22221" d="M363.792,478.566l-12.7-19.992,20.585-13.066-14.345-5.94-13.051,8.29L334.131,431.88l-12.981,8.243L350.8,486.809Z" transform="translate(-73.622 -99.16)" fill="#51ab1d"/>
    <path id="Path_22222" data-name="Path 22222" d="M120.242,492.23l-.855-14.468L74.342,447.94l-6.4,9.669Z" transform="translate(-15.485 -102.847)" fill="#51ab1d"/>
    <path id="Path_22223" data-name="Path 22223" d="M110.294,435.838,90.88,422.98l-6.41,9.668,29.09,19.26Z" transform="translate(-19.28 -97.116)" fill="#51ab1d"/>
    <path id="Path_22224" data-name="Path 22224" d="M116.136,455.69l12.5,8.274,21.155-31.933-.077-.046-12.427-8.228L104.672,402.17l-6.4,9.661,32.611,21.594Z" transform="translate(-22.448 -92.338)" fill="#51ab1d"/>
    <path id="Path_22225" data-name="Path 22225" d="M269.423,505.8l4.33-.655-1.857-12.4-.316.046A3.143,3.143,0,0,1,268,490.167l-3.529-22.989A3.143,3.143,0,0,1,267.1,463.6l14.43-2.2-1.88-12.388L261.2,451.771a15.454,15.454,0,0,0-12.966,17.611l3.567,23.436A15.454,15.454,0,0,0,269.423,505.8Zm19.322-42.333,3.5,23.012a3.128,3.128,0,0,1-2.619,3.559l-14.453,2.2,1.887,12.411,18.49-2.812a15.462,15.462,0,0,0,12.966-17.611l-3.567-23.436A15.462,15.462,0,0,0,287.3,447.826l-4.33.655,1.887,12.4.316-.054a3.151,3.151,0,0,1,3.567,2.643Z" transform="translate(-56.84 -102.779)" fill="#51ab1d"/>
    <path id="Path_22226" data-name="Path 22226" d="M415.087,399.289a16.409,16.409,0,0,1-15.955-25.77l24.237-33.659,9.445,6.795-22.935,31.833a4.784,4.784,0,1,0,7.766,5.585l4.915-6.818,9.43,6.78-6.217,8.636a16.34,16.34,0,0,1-10.685,6.618Z" transform="translate(-90.819 -78.032)" fill="#51ab1d"/>
    <path id="Path_22227" data-name="Path 22227" d="M441.72,423.876l-9.43-6.749,22.041-30.616a4.791,4.791,0,1,0-7.781-5.593l-4.307,5.986-9.407-6.818,6.5-9.029a16.41,16.41,0,1,1,26.625,19.168Z" transform="translate(-99.139 -83.544)" fill="#51ab1d"/>
    <path id="Path_22228" data-name="Path 22228" d="M158.6,472.8l-2.134,10.97a12.9,12.9,0,0,0,10.2,15.146l54.96,10.716L215.2,495.22l-38.6-7.527A4.853,4.853,0,0,1,172.747,482l.285-1.433a4.838,4.838,0,0,1,5.316-3.852,2.966,2.966,0,0,1,.378.054l19.684,3.852-5.462-14.214-8.128-21.194-20.03-3.914,8.143,21.224A12.912,12.912,0,0,0,158.6,472.8Z" transform="translate(-35.756 -101.323)" fill="#51ab1d"/>
    <path id="Path_22229" data-name="Path 22229" d="M96.674,396.654,84.085,379.782l-14.191-.262L65.28,396.107Z" transform="translate(-14.874 -87.138)" fill="#51ab1d"/>
    <path id="Path_22230" data-name="Path 22230" d="M0,378.26l12.326,16.564c.069.1.131.208.193.316l14.229.254,4.622-16.571Z" transform="translate(-0.003 -86.849)" fill="#51ab1d"/>
    <path id="Path_22231" data-name="Path 22231" d="M37.459,385.715,32.79,402.448c.085.093.169.177.247.277l12.326,16.564,9.245-33.274,4.622-16.571,4.622-16.7L51.264,335.87l-9.245,33.274Z" transform="translate(-7.532 -77.116)" fill="#51ab1d"/>
    <rect id="Rectangle_2920" data-name="Rectangle 2920" width="58.62" height="6.171" transform="translate(0.613 197.276)" fill="#51ab1d"/>
    <rect id="Rectangle_2921" data-name="Rectangle 2921" width="58.62" height="6.171" transform="translate(310.663 197.276)" fill="#51ab1d"/>
    <path id="Path_22232" data-name="Path 22232" d="M233,240.773h-7.766v7.2h8.652v2.157H222.67V230.18h10.786v2.173h-8.22v6.3h7.758Z" transform="translate(-51.128 -52.849)" fill="#308540"/>
    <path id="Path_22233" data-name="Path 22233" d="M240.157,246.9a9.145,9.145,0,0,0,4.622,1.3c2.635,0,4.176-1.394,4.176-3.405,0-1.864-1.063-2.928-3.76-3.968-3.259-1.148-5.27-2.835-5.27-5.647,0-3.082,2.573-5.393,6.456-5.393a8.983,8.983,0,0,1,4.407.978l-.709,2.1a7.928,7.928,0,0,0-3.79-.948c-2.719,0-3.76,1.633-3.76,2.989,0,1.864,1.217,2.789,3.968,3.852,3.374,1.3,5.092,2.928,5.092,5.855,0,3.082-2.311,5.747-6.987,5.747a10.238,10.238,0,0,1-5.092-1.279Z" transform="translate(-54.994 -52.758)" fill="#308540"/>
  </g>
</svg>
