<svg xmlns="http://www.w3.org/2000/svg" xmlns:xlink="http://www.w3.org/1999/xlink" width="18.875" height="18.97" viewBox="0 0 18.875 18.97"><defs><clipPath id="a"><rect width="18.875" height="18.97" fill="#51ab1d"/></clipPath></defs><g clip-path="url(#a)"><path d="M4.517,1.99c.878.377,1.761.742,2.631,1.134a3.7,3.7,0,0,1,2.169,2.6,4.426,4.426,0,0,1,.109,1.026c.01,2,0,4,0,6v.43c.725,0,1.425.03,2.12-.012a.83.83,0,0,0,.7-.838c.014-.32,0-.642.008-.963a.959.959,0,0,1,.943-.988.95.95,0,0,1,.953.976,7.99,7.99,0,0,1-.034,1.256A2.829,2.829,0,0,1,11.273,15.1c-.6.006-1.2,0-1.841,0,0,.6-.008,1.167,0,1.732A1.951,1.951,0,0,1,8.384,18.7a1.949,1.949,0,0,1-2.133-.1c-1.3-.828-2.614-1.636-3.917-2.459A4.691,4.691,0,0,1,0,11.946Q0,7.428,0,2.91A2.783,2.783,0,0,1,2.921,0q4.148,0,8.3,0A2.852,2.852,0,0,1,14.16,2.947c0,.271.01.544,0,.815a.948.948,0,1,1-1.9-.008c-.013-.32.005-.642-.008-.963a.884.884,0,0,0-.828-.883,3.916,3.916,0,0,0-.444-.015H4.542l-.025.1M1.9,2.947c-.007.143-.017.251-.017.358q0,4.311,0,8.622a2.887,2.887,0,0,0,1.453,2.616c1.279.791,2.55,1.593,3.826,2.39.1.063.206.115.343.191.015-.139.033-.233.034-.327q0-5.069,0-10.139A1.877,1.877,0,0,0,6.3,4.814Q4.266,3.937,2.23,3.062c-.1-.042-.2-.07-.33-.115" transform="translate(0 0)" fill="#51ab1d"/><path d="M157.086,65.538c-.146-.172-.249-.275-.332-.393a.941.941,0,0,1,.134-1.243.9.9,0,0,1,1.217-.029q1.034.98,2.017,2.012a.909.909,0,0,1-.082,1.3q-.895.911-1.8,1.806a.943.943,0,1,1-1.345-1.316l.193-.212c-.164-.011-.277-.024-.39-.024-.95,0-1.9.007-2.85,0a.951.951,0,1,1-.015-1.894c1.06,0,2.12,0,3.258,0" transform="translate(-141.482 -58.936)" fill="#51ab1d"/></g></svg>