<svg id="Group_9535" data-name="Group 9535" xmlns="http://www.w3.org/2000/svg" xmlns:xlink="http://www.w3.org/1999/xlink" width="25.049" height="18.646" viewBox="0 0 25.049 18.646">
  <defs>
    <clipPath id="clip-path">
      <rect id="Rectangle_3951" data-name="Rectangle 3951" width="25.049" height="18.646" fill="#72bb48"/>
    </clipPath>
  </defs>
  <g id="Group_9534" data-name="Group 9534" clip-path="url(#clip-path)">
    <path id="Path_23337" data-name="Path 23337" d="M21.512,0Q12.524,0,3.537,0A3.292,3.292,0,0,0,0,3.559Q0,9.323,0,15.088a3.293,3.293,0,0,0,3.536,3.557H21.466a3.314,3.314,0,0,0,3.582-3.558q0-5.764,0-11.529A3.292,3.292,0,0,0,21.512,0M17.849,4.542Q15.225,6.5,12.6,8.45l-.082.06c-2.129-1.6-4.3-3.214-6.4-4.776l-1.2-.89H20.132l-2.283,1.7m-6.007,6.989a1.009,1.009,0,0,0,1.364,0C15.674,9.679,18.192,7.808,20.627,6l1.595-1.185V12.6q0,1.254,0,2.509c0,.62-.155.713-.685.713q-9.012,0-18.023,0c-.677,0-.678-.311-.679-.478-.008-2.825-.007-5.591-.006-8.519q0-1,0-2.006l1.5,1.118c2.464,1.831,5.013,3.725,7.51,5.6" transform="translate(0 0)" fill="#72bb48"/>
  </g>
</svg>
