<svg xmlns="http://www.w3.org/2000/svg" xmlns:xlink="http://www.w3.org/1999/xlink" width="24" height="24" viewBox="0 0 24 24">
  <defs>
    <clipPath id="clip-path">
      <rect id="Rectangle_3872" data-name="Rectangle 3872" width="24" height="24" fill="#72bb48"/>
    </clipPath>
  </defs>
  <g id="Group_9444" data-name="Group 9444" clip-path="url(#clip-path)">
    <path id="Path_23302" data-name="Path 23302" d="M7.3,15.874c-.645-.966-1.274-1.837-1.829-2.753A9.041,9.041,0,0,1,4.18,6.508,8.068,8.068,0,0,1,12.2,0a8.09,8.09,0,0,1,7.741,7.059A9.909,9.909,0,0,1,18.015,14c-.4.6-.842,1.181-1.31,1.833.186.014.329.034.472.035.972,0,1.945-.01,2.917.013a.613.613,0,0,1,.468.255c1.149,2.557,2.277,5.124,3.407,7.69A.856.856,0,0,1,24,24H0c.062-.165.112-.319.178-.468,1.056-2.391,2.124-4.777,3.16-7.176a.69.69,0,0,1,.771-.492c1.047.029,2.1.01,3.188.01M12,18.038a26.488,26.488,0,0,0,4.87-5.7A7.893,7.893,0,0,0,18.148,7.8a6.256,6.256,0,0,0-5.538-5.888A6.249,6.249,0,0,0,6.2,10.257c1.057,3.209,3.433,5.476,5.8,7.781m9.126,4.076a.565.565,0,0,0-.011-.163c-.58-1.319-1.155-2.641-1.759-3.949a.61.61,0,0,0-.469-.245c-1.191-.021-2.383-.024-3.574,0a1.032,1.032,0,0,0-.6.266c-.814.722-1.611,1.462-2.4,2.208a.364.364,0,0,1-.593,0q-1.2-1.137-2.435-2.244a.888.888,0,0,0-.521-.233c-1.223-.02-2.446,0-3.669-.018a.452.452,0,0,0-.483.339c-.3.7-.608,1.393-.914,2.089l-.858,1.948Z" transform="translate(0 0)" fill="#72bb48"/>
    <path id="Path_23303" data-name="Path 23303" d="M91.534,52.718A3.8,3.8,0,1,1,95.3,48.941a3.806,3.806,0,0,1-3.768,3.777m0-1.89A1.91,1.91,0,1,0,89.671,48.9a1.893,1.893,0,0,0,1.865,1.928" transform="translate(-79.544 -40.815)" fill="#72bb48"/>
  </g>
</svg>
