<svg xmlns="http://www.w3.org/2000/svg" width="17.531" height="30.191" viewBox="0 0 17.531 30.191">
  <path id="Path_23455" data-name="Path 23455" d="M17.529,2.375A2.089,2.089,0,0,0,15.134,0Q8.764,0,2.395,0A2.087,2.087,0,0,0,0,2.379Q0,15.082,0,27.788c0,1.649.766,2.4,2.425,2.4q6.311,0,12.622,0c1.738,0,2.48-.736,2.482-2.465q0-6.308,0-12.616,0-6.366,0-12.734M6.383,1.554a.287.287,0,0,1,.2-.084h4.255a.288.288,0,0,1,.281.219.025.025,0,0,0,.008,0l-.006,0a.32.32,0,0,1,.006.059.288.288,0,0,1-.289.288H6.587A.288.288,0,0,1,6.3,1.758a.285.285,0,0,1,.085-.2m2.358,27.6a1,1,0,0,1-.99-1.027,1.015,1.015,0,0,1,2.029.051,1,1,0,0,1-1.039.976m7.318-2.769H1.471V3.257H16.059Z" transform="translate(0)" fill="#72bb48"/>
</svg>
