<svg xmlns="http://www.w3.org/2000/svg" width="26.102" height="26.099" viewBox="0 0 26.102 26.099">
  <path id="Path_23453" data-name="Path 23453" d="M10.179,21.531h-1.6q-3.771,0-7.542,0C.243,21.529,0,21.287,0,20.5,0,17.862,0,15.229,0,12.6A6.553,6.553,0,0,1,6.652,5.936c3.482-.021,6.965,0,10.447,0h.659V5.286c0-1.427,0-2.854,0-4.281,0-.746.267-1,1.021-1q2.956,0,5.911,0c.748,0,1,.256,1,1.014q0,1.452,0,2.9c0,.789-.248,1.044-1.028,1.046-1.58,0-3.16,0-4.739,0h-.591v.918c.508.073,1.027.122,1.535.224a6.462,6.462,0,0,1,5.224,6.3c.019,2.718.006,5.436,0,8.154,0,.712-.261.966-.994.967q-4.255,0-8.511,0h-.671v1.2c0,.815,0,1.631,0,2.446-.005.632-.273.912-.89.915q-1.987.011-3.975,0a.771.771,0,0,1-.872-.88c-.008-1.019,0-2.038,0-3.058v-.624M17.756,7.5H10.874a1.436,1.436,0,0,0,.135.192,6.778,6.778,0,0,1,2.118,5.264c-.026,2.14-.006,4.28-.006,6.42v.584H24.548c0-2.651.08-5.267-.024-7.876a4.791,4.791,0,0,0-3.907-4.447c-.417-.092-.848-.118-1.27-.173a1.973,1.973,0,0,0-.047.249c0,1.121.007,2.242-.011,3.363a.532.532,0,0,0,.367.566,2.6,2.6,0,0,1,1.378,3.244,2.647,2.647,0,0,1-5.1-.351,2.683,2.683,0,0,1,1.39-2.868c.168-.091.409-.265.413-.406.033-1.237.019-2.476.019-3.761M11.541,19.967a3.69,3.69,0,0,0,.039-.37c0-2.36.006-4.72-.005-7.08a5.178,5.178,0,0,0-.128-1.109A5.012,5.012,0,0,0,1.54,12.492c-.014,2.36,0,4.72,0,7.08,0,.13.022.26.035.395ZM19.323,3.381h4.8V1.556h-4.8ZM14.352,21.563H11.744v2.97h2.64c0-.87,0-1.713,0-2.556,0-.131-.019-.262-.031-.414m4.186-6.439a1.1,1.1,0,1,0,.021-2.2,1.1,1.1,0,1,0-.021,2.2" transform="translate(0)" fill="#72bb48"/>
</svg>
