<svg xmlns="http://www.w3.org/2000/svg" width="24.076" height="24.234" viewBox="0 0 24.076 24.234">
  <g id="Group_9553" data-name="Group 9553" transform="translate(-9550.75 8421.251)">
    <path id="Path_23367" data-name="Path 23367" d="M18.131,10.588c1.538.831,3.025,1.631,4.509,2.436a1.456,1.456,0,0,1,.789,1.1,10.482,10.482,0,0,1-.553,5.678,6.48,6.48,0,0,1-4.343,3.869,1.655,1.655,0,0,1-.875-.01,6.535,6.535,0,0,1-3.533-2.436.859.859,0,0,0-.791-.383c-3.235.014-6.469.01-9.7.007a3.378,3.378,0,0,1-3.623-3.6C0,13.8.018,10.349,0,6.9A3.569,3.569,0,0,1,1.116,4.2Q2.7,2.651,4.262,1.086A3.519,3.519,0,0,1,6.873,0c2.581.013,5.162,0,7.743.006A3.382,3.382,0,0,1,18.13,3.521q.006,3.293,0,6.586v.48M12.8,18.877a2.007,2.007,0,0,0-.03-.313,12.63,12.63,0,0,1-.384-4.134,1.59,1.59,0,0,1,.9-1.453c.814-.431,1.614-.888,2.433-1.309a.669.669,0,0,0,.429-.689c-.018-2.447-.008-4.895-.01-7.342,0-1.114-.517-1.647-1.616-1.65-2.531-.007-5.063,0-7.594-.006a1.72,1.72,0,0,0-1.3.539c-1,1.012-2.011,2.02-3.04,3.005A1.891,1.891,0,0,0,1.979,7c.012,3.386,0,6.772.007,10.158,0,1.214.5,1.718,1.706,1.719q4.3,0,8.6,0h.51m8.755-2.841c0-.268-.019-.537,0-.8a.788.788,0,0,0-.54-.844c-.926-.466-1.821-.993-2.747-1.458a.858.858,0,0,0-.674-.015q-1.478.746-2.91,1.579a.781.781,0,0,0-.339.575,14.353,14.353,0,0,0,.182,2.3A5.219,5.219,0,0,0,17.7,21.577a1.171,1.171,0,0,0,.793,0,4.435,4.435,0,0,0,2.452-2.324,6.875,6.875,0,0,0,.608-3.222" transform="translate(9551 -8421)" fill="#8b8b8b" stroke="#8b8b8b" stroke-width="0.5"/>
    <path id="Path_23368" data-name="Path 23368" d="M54.768,83.5c-.869,0-1.739,0-2.608,0-.635,0-1.022-.342-1.035-.885a.911.911,0,0,1,1.032-.938q2.585-.013,5.17,0c.656,0,1.066.368,1.066.913s-.412.907-1.064.911c-.854,0-1.708,0-2.562,0" transform="translate(9505.207 -8494.396)" fill="#8b8b8b" stroke="#8b8b8b" stroke-width="0.5"/>
    <path id="Path_23369" data-name="Path 23369" d="M53.423,126.929c.449,0,.9-.012,1.346,0a.906.906,0,0,1,.908.919.892.892,0,0,1-.891.888q-1.392.029-2.785,0a.872.872,0,0,1-.875-.894.885.885,0,0,1,.9-.912c.464-.015.928,0,1.392,0" transform="translate(9505.118 -8535.069)" fill="#8b8b8b" stroke="#8b8b8b" stroke-width="0.5"/>
  </g>
</svg>
