<svg xmlns="http://www.w3.org/2000/svg" width="20.185" height="20.191" viewBox="0 0 20.185 20.191">
  <g id="Group_9521" data-name="Group 9521" transform="translate(-10688.75 9141.75)">
    <path id="Path_23325" data-name="Path 23325" d="M17.376,5.395H2.309V5.76q0,5.362,0,10.724A1.545,1.545,0,0,0,4,18.149c1.524,0,3.048,0,4.573,0,.586,0,.934.3.922.788-.011.47-.351.75-.922.75-1.563,0-3.125.006-4.688,0A3.066,3.066,0,0,1,.772,16.562Q.764,11.22.77,5.877V5.427C.134,5.211,0,5.03,0,4.389,0,3.71,0,3.031,0,2.352A2.3,2.3,0,0,1,2.33,0Q9.842,0,17.354,0a2.3,2.3,0,0,1,2.328,2.347c.005.679,0,1.358,0,2.037,0,.641-.133.823-.769,1.037,0,.863,0,1.733,0,2.6,0,.585-.3.936-.785.926s-.751-.35-.753-.92c0-.868,0-1.737,0-2.641M1.542,3.819h16.6c0-.436,0-.845,0-1.254,0-.785-.243-1.024-1.039-1.024H2.579c-.09,0-.18,0-.269,0a.757.757,0,0,0-.765.753c-.016.5,0,1,0,1.523" transform="translate(10689 -9141.5)" fill="#51ab1d"/>
    <path id="Path_23325_-_Outline" data-name="Path 23325 - Outline" d="M5.818,19.941c-.726,0-1.36,0-1.938,0A3.305,3.305,0,0,1,.522,16.563c0-2.528,0-5.1,0-7.584q0-1.551,0-3.1V5.6c-.6-.235-.768-.523-.769-1.212q0-.26,0-.52c0-.5,0-1.012,0-1.519A2.545,2.545,0,0,1,2.33-.246c2.492,0,5.02,0,7.513,0s5.02,0,7.513,0a2.545,2.545,0,0,1,2.578,2.6c0,.51,0,1.029,0,1.53q0,.255,0,.509c0,.69-.171.978-.769,1.212v.608q0,.908,0,1.821c0,.724-.411,1.188-1.04,1.175-.614-.013-1-.461-1-1.169,0-.611,0-1.222,0-1.845V5.645H2.559V8.7q0,3.894,0,7.789A1.3,1.3,0,0,0,4,17.9H8.568a1.234,1.234,0,0,1,.908.329.965.965,0,0,1,.264.715,1.029,1.029,0,0,1-1.172.994H7.7ZM9.842.25c-2.492,0-5.02,0-7.512,0a2.055,2.055,0,0,0-2.078,2.1c0,.5,0,1.018,0,1.514q0,.26,0,.521c0,.531.068.621.6.8l.17.058v.63q0,1.551,0,3.1c0,2.485,0,5.055,0,7.583a2.816,2.816,0,0,0,2.86,2.875c.578,0,1.211,0,1.936,0l1.886,0h.864c.3,0,.663-.088.672-.506a.471.471,0,0,0-.122-.354.757.757,0,0,0-.551-.178H3.995A1.788,1.788,0,0,1,2.06,16.484q0-3.894,0-7.789V5.145H17.626V6.191c0,.623,0,1.233,0,1.843,0,.3.089.662.508.671h.015c.447,0,.515-.424.515-.677q0-.911,0-1.82V5.247l.17-.057c.531-.179.6-.269.6-.8q0-.255,0-.51c0-.5,0-1.017,0-1.525a2.055,2.055,0,0,0-2.078-2.1C14.862.252,12.335.25,9.842.25Zm8.552,3.819H1.292v-.25c0-.161,0-.319,0-.475,0-.363-.005-.706.006-1.056a1,1,0,0,1,1-.995c.037,0,.076,0,.122,0H17.106c.938,0,1.288.345,1.289,1.273,0,.282,0,.563,0,.854Zm-16.6-.5h16.1v-.15c0-.29,0-.572,0-.853,0-.644-.133-.774-.789-.774H2.419c-.031,0-.063,0-.094,0A.507.507,0,0,0,1.8,2.3c-.011.341-.008.679-.006,1.036Q1.791,3.454,1.791,3.569Z" transform="translate(10689 -9141.5)" fill="#51ab1d"/>
    <path id="Path_23326" data-name="Path 23326" d="M126.245,121.084a5.191,5.191,0,1,1-5.192,5.179,5.2,5.2,0,0,1,5.192-5.179m-3.652,5.159a3.651,3.651,0,1,0,3.7-3.619,3.658,3.658,0,0,0-3.7,3.619" transform="translate(10577.251 -9253.277)" fill="#51ab1d"/>
    <path id="Path_23326_-_Outline" data-name="Path 23326 - Outline" d="M126.234,131.716h-.014a5.45,5.45,0,1,1,.014,0Zm.01-10.382a4.941,4.941,0,0,0-.023,9.882h.013a4.941,4.941,0,1,0,.01-9.882Zm-.017,8.842h-.038a3.9,3.9,0,0,1,.07-7.8h.036a3.9,3.9,0,0,1-.069,7.8Zm.032-7.3a3.4,3.4,0,0,0-.066,6.8h.033a3.4,3.4,0,0,0,.064-6.8Z" transform="translate(10577.251 -9253.277)" fill="#51ab1d"/>
    <path id="Path_23327" data-name="Path 23327" d="M97.575,90.041c.55,0,1.1-.005,1.65,0a.77.77,0,1,1,.009,1.535q-1.67.01-3.339,0a.77.77,0,1,1-.009-1.535c.563-.008,1.126,0,1.689,0" transform="translate(10601.244 -9224.619)" fill="#51ab1d"/>
    <path id="Path_23327_-_Outline" data-name="Path 23327 - Outline" d="M97.574,91.833c-.545,0-1.11,0-1.681,0a1.019,1.019,0,1,1-.011-2.035c.2,0,.411,0,.669,0l1.014,0h.01l1,0c.251,0,.458,0,.652,0a1.019,1.019,0,1,1,.007,2.035C98.7,91.832,98.137,91.833,97.574,91.833Zm-1.023-1.544c-.256,0-.466,0-.662,0a.521.521,0,1,0,.007,1.035c.569,0,1.134,0,1.678,0,.561,0,1.119,0,1.658,0a.521.521,0,1,0-.011-1.035c-.191,0-.4,0-.645,0l-1,0h-.01Z" transform="translate(10601.244 -9224.619)" fill="#51ab1d"/>
    <path id="Path_23328" data-name="Path 23328" d="M161.693,160.189c.284,0,.5-.008.716,0a.768.768,0,1,1,.015,1.535c-.226.011-.453,0-.733,0,0,.286.012.526,0,.765a.765.765,0,1,1-1.529,0c-.014-.229,0-.459,0-.759-.252,0-.476.007-.7,0a.77.77,0,1,1-.015-1.536c.215-.009.431,0,.712,0,0-.257-.007-.482,0-.707a.77.77,0,1,1,1.536,0c.008.215,0,.43,0,.7" transform="translate(10542.57 -9287.961)" fill="#51ab1d"/>
    <path id="Path_23328_-_Outline" data-name="Path 23328 - Outline" d="M160.921,163.51a1.008,1.008,0,0,1-1.012-1.008c-.01-.162-.008-.319-.005-.5v-.022h-.194c-.1,0-.184,0-.262,0a1.019,1.019,0,1,1-.016-2.036c.076,0,.157,0,.255,0h.215c0-.16,0-.311,0-.465a1.019,1.019,0,1,1,2.035,0c.006.15,0,.3,0,.461h.218c.1,0,.181,0,.257,0a1.018,1.018,0,1,1,.017,2.034c-.08,0-.166.006-.27.006l-.223,0v.009c0,.179,0,.348-.005.519a1,1,0,0,1-.992,1Zm-.765-2.032h.25v.25c0,.1,0,.193,0,.28,0,.172,0,.32,0,.464a.509.509,0,0,0,.513.538h.014a.51.51,0,0,0,.5-.534c.009-.152.007-.3,0-.482,0-.085,0-.174,0-.268v-.25h.25c.175,0,.329,0,.476,0,.1,0,.174,0,.246-.005.348-.017.559-.207.563-.509s-.211-.51-.578-.526c-.069,0-.143,0-.235,0-.141,0-.292,0-.47,0h-.25v-.25c0-.091,0-.175,0-.255,0-.161,0-.3,0-.438-.015-.369-.208-.59-.517-.591s-.5.219-.519.587c-.006.147,0,.3,0,.456,0,.078,0,.157,0,.24v.25h-.25c-.176,0-.326,0-.467,0-.091,0-.166,0-.234,0-.367.015-.584.211-.581.523a.54.54,0,0,0,.595.514c.072,0,.149,0,.244,0Z" transform="translate(10542.57 -9287.961)" fill="#51ab1d"/>
  </g>
</svg>
