<svg xmlns="http://www.w3.org/2000/svg" xmlns:xlink="http://www.w3.org/1999/xlink" width="31.006" height="31.002" viewBox="0 0 31.006 31.002">
  <defs>
    <clipPath id="clip-path">
      <rect id="Rectangle_3946" data-name="Rectangle 3946" width="22.701" height="22.691" fill="#51ab1d"/>
    </clipPath>
  </defs>
  <g id="Group_9552" data-name="Group 9552" transform="translate(11.346) rotate(30)">
    <g id="Group_9531" data-name="Group 9531" clip-path="url(#clip-path)">
      <path id="Path_23331" data-name="Path 23331" d="M21.5,18.148l-.059-.058q-4.976-4.979-9.955-9.956a1.777,1.777,0,0,0-1.218-.62h-.01A1.288,1.288,0,0,0,9.044,8.769,1.714,1.714,0,0,0,9.68,9.938c.114.107.127.127.072.3A35.325,35.325,0,0,1,3.041,22.2c-.274.324-.567.646-.85.957l-.142.156a1.249,1.249,0,0,0-1.7.126,1.281,1.281,0,0,0,.122,1.873c.216.219.437.437.651.649l.26.257.828.821c.692.687,1.407,1.4,2.117,2.09a1.408,1.408,0,0,0,.98.431A1.236,1.236,0,0,0,6.18,29.2a1.258,1.258,0,0,0,.1-1.71l.765-.689.115.177a2.977,2.977,0,0,0,4.241.886c.592-.388,1.177-.787,1.739-1.186a2.977,2.977,0,0,0,.8-4.186c-.2-.315-.413-.63-.617-.935l-.21-.315a1.633,1.633,0,0,0-.969-.776,1.511,1.511,0,0,0-1.121.321c-1.967,1.343-3.454,2.388-4.82,3.388a17.931,17.931,0,0,0-1.413,1.191l-.294.265-.556-.569A37.725,37.725,0,0,0,11.789,12.2l5.587,5.591-1.883.73c-.125.048-.257.1-.387.165a1.275,1.275,0,0,0,1,2.344c1.035-.386,1.884-.711,2.672-1.025.686-.273.869-.256,1.09.1a.6.6,0,0,0,.233.21l.012.007a1.274,1.274,0,0,0,1.717-1.805,2.706,2.706,0,0,0-.334-.375M9.042,25.158l2.47-1.7c.242.346.426.651.394.81-.042.215-.514.528-.864.746-.2.122-.387.254-.57.382s-.328.228-.493.332a.418.418,0,0,1-.651-.122c-.1-.137-.186-.282-.286-.447" transform="translate(-0.001 -6.873)" fill="#51ab1d"/>
      <path id="Path_23332" data-name="Path 23332" d="M196.325,19.707a1.146,1.146,0,0,0,.4.467,1.3,1.3,0,0,0,.773.256,1.215,1.215,0,0,0,.549-.129h0a.851.851,0,0,0,.21-.147c.7-.672,1.5-1.457,2.27-2.274a1.261,1.261,0,0,0-1.777-1.772c-.649.61-1.493,1.423-2.272,2.294a1.388,1.388,0,0,0-.149,1.305" transform="translate(-179.488 -14.449)" fill="#51ab1d"/>
      <path id="Path_23333" data-name="Path 23333" d="M221.686,64.688a1.224,1.224,0,0,0-.793-.855,1.542,1.542,0,0,0-1.01,0l-.231.077c-.435.144-.928.307-1.413.513a1.212,1.212,0,0,0-.566,1.545,1.247,1.247,0,0,0,1.151.816,1.118,1.118,0,0,0,.282-.036,16.679,16.679,0,0,0,1.906-.621,1.213,1.213,0,0,0,.674-1.439" transform="translate(-199.027 -58.31)" fill="#51ab1d"/>
      <path id="Path_23334" data-name="Path 23334" d="M167.743,4.039a1.243,1.243,0,0,0,.344.047A1.174,1.174,0,0,0,169.2,3.4a14.883,14.883,0,0,0,.639-1.943,1.192,1.192,0,0,0-.889-1.408,1.268,1.268,0,0,0-1.5.727c-.177.428-.324.859-.453,1.239l-.079.232a1.526,1.526,0,0,0-.043.889,1.229,1.229,0,0,0,.864.905" transform="translate(-152.598 0)" fill="#51ab1d"/>
    </g>
  </g>
</svg>
