<svg xmlns="http://www.w3.org/2000/svg" width="25.09" height="24.955" viewBox="0 0 25.09 24.955">
  <g id="Group_9629" data-name="Group 9629" transform="translate(-1111 -805.999)">
    <path id="Path_23386" data-name="Path 23386" d="M13.285,128.562c2.339,0,4.225.012,5.605.035a2.623,2.623,0,0,1,1.963.891,2.583,2.583,0,0,1,.675,1.919.35.35,0,0,1-.027.118.481.481,0,0,1-.231.044c-.87.007-2.123.011-3.83.011l-3.456,0-2.486,0H11.34c-.691,0-1.405-.01-2.1-.019-.715-.01-1.455-.02-2.194-.02-1.122,0-2.053.023-2.931.073l-.068,0a.644.644,0,0,1-.449-.13,1.225,1.225,0,0,1,.018-.788,2.768,2.768,0,0,1,2.576-2.1c1.413-.011,4.212-.028,7.089-.028m0-3.552c-2.562,0-5.2.014-7.115.028a6.325,6.325,0,0,0-6,4.819c-.8,3.306,1.377,5.306,3.883,5.306q.135,0,.271-.008c.908-.052,1.818-.068,2.728-.068,1.429,0,2.861.039,4.29.039H11.5c1.518,0,3.811.005,5.942.005,1.463,0,2.851,0,3.859-.011a3.67,3.67,0,0,0,3.764-3.371,6.219,6.219,0,0,0-6.114-6.705c-1.555-.026-3.584-.035-5.664-.035" transform="translate(1111 695.791)" fill="#72bb48"/>
    <path id="Path_23387" data-name="Path 23387" d="M55.721,3.551h.02a3.194,3.194,0,0,1-.021,6.388h-.009a3.151,3.151,0,0,1-2.245-.933,3.2,3.2,0,0,1-.938-2.281,3.155,3.155,0,0,1,3.192-3.174m0-3.552a6.746,6.746,0,0,0-.01,13.492h.009A6.746,6.746,0,0,0,55.762,0h-.04" transform="translate(1067.822 806)" fill="#72bb48"/>
  </g>
</svg>
